<?xml version="1.0" encoding="iso-8859-1"?>
<!-- Generator: Adobe Illustrator 19.0.0, SVG Export Plug-In . SVG Version: 6.00 Build 0)  -->
<svg xmlns="http://www.w3.org/2000/svg" xmlns:xlink="http://www.w3.org/1999/xlink" version="1.1" id="Layer_1" x="0px" y="0px" viewBox="0 0 512.558 512.558" style="enable-background:new 0 0 512.558 512.558;" xml:space="preserve">
<path style="fill:#8AD7F8;" d="M362.412,216.533C362.412,157.867,255.745,0,255.745,0S149.079,157.867,149.079,216.533  s48,106.667,106.667,106.667S362.412,275.2,362.412,216.533z"/>
<path style="fill:#FFFFFF;" d="M255.745,294.4c-42.667,0-77.867-35.2-77.867-77.867c0-5.333,4.267-9.6,9.6-9.6  c5.333,0,9.6,4.267,9.6,9.6c0,32,26.667,58.667,58.667,58.667c5.333,0,9.6,4.267,9.6,9.6  C265.345,290.133,261.079,294.4,255.745,294.4z"/>
<g>
	<path style="fill:#55C0EB;" d="M298.412,439.467c-17.067,0-33.067-4.267-48-11.733c-23.467-11.733-50.133-12.8-72.533,0   c-29.867,16-66.133,16-97.067,0c-20.267-10.667-42.667-11.733-64-4.267c-5.333,2.133-12.8,0-14.933-6.4l0,0   c-3.2-6.4,0-14.933,6.4-18.133c27.733-9.6,57.6-7.467,84.267,6.4c22.4,11.733,50.133,11.733,72.533,0c29.867-16,66.133-16,97.067,0   c22.4,11.733,50.133,12.8,72.533,0c29.867-16,67.2-16,97.067,0c20.267,10.667,42.667,11.733,64,4.267   c5.333-2.133,12.8,0,14.933,6.4l0,0c3.2,6.4,0,14.933-6.4,18.133c-27.733,9.6-57.6,7.467-84.267-6.4   c-22.4-11.733-50.133-11.733-72.533,0C331.479,435.2,314.412,439.467,298.412,439.467z"/>
	<path style="fill:#55C0EB;" d="M298.412,512c-17.067,0-33.067-4.267-48-11.733c-22.4-11.733-50.133-12.8-72.533,0   c-29.867,16-67.2,16-97.067,0c-20.267-10.667-42.667-11.733-64-4.267c-5.333,2.133-12.8,0-14.933-6.4l0,0   c-3.2-6.4,0-14.933,6.4-18.133c27.733-9.6,57.6-7.467,84.267,6.4c22.4,11.733,50.133,11.733,72.533,0c29.867-16,66.133-16,97.067,0   c22.4,11.733,50.133,12.8,72.533,0c29.867-16,67.2-16,97.067,0c20.267,10.667,42.667,11.733,64,4.267   c5.333-2.133,12.8,0,14.933,6.4l0,0c3.2,6.4,0,14.933-6.4,18.133c-27.733,9.6-57.6,7.467-84.267-6.4   c-22.4-11.733-50.133-11.733-72.533,0C331.479,507.733,314.412,512,298.412,512z"/>
</g>
<g>
</g>
<g>
</g>
<g>
</g>
<g>
</g>
<g>
</g>
<g>
</g>
<g>
</g>
<g>
</g>
<g>
</g>
<g>
</g>
<g>
</g>
<g>
</g>
<g>
</g>
<g>
</g>
<g>
</g>
</svg>
