<?xml version="1.0" encoding="iso-8859-1"?>
<!-- Generator: Adobe Illustrator 19.0.0, SVG Export Plug-In . SVG Version: 6.00 Build 0)  -->
<svg xmlns="http://www.w3.org/2000/svg" xmlns:xlink="http://www.w3.org/1999/xlink" version="1.1" id="Layer_1" x="0px" y="0px" viewBox="0 0 514.133 514.133" style="enable-background:new 0 0 514.133 514.133;" xml:space="preserve">
<path style="fill:#FFD15C;" d="M442.667,1.067H131.2V403.2h343.467V33.067C474.667,14.933,459.733,1.067,442.667,1.067z"/>
<polygon style="fill:#F05540;" points="331.733,157.867 290.133,124.8 247.467,157.867 247.467,1.067 331.733,1.067 "/>
<path style="fill:#F3F3F3;" d="M61.867,459.733L61.867,459.733c0-19.2,14.933-34.133,34.133-34.133h378.667v68.267H96  C76.8,493.867,61.867,477.867,61.867,459.733z"/>
<path style="fill:#344A5E;" d="M61.867,457.6L61.867,457.6c0-19.2,14.933-33.067,34.133-33.067h35.2V0H94.933  C64,1.067,39.467,25.6,39.467,56.533v402.133"/>
<path style="fill:#415A6B;" d="M94.933,427.733C77.867,427.733,64,441.6,64,458.667c0,17.067,13.867,30.933,30.933,30.933h379.733  v24.533l-379.733-1.067c-29.867,0-55.467-24.533-55.467-55.467c0-29.867,24.533-55.467,55.467-55.467h379.733v24.533L94.933,427.733  z"/>
<g>
</g>
<g>
</g>
<g>
</g>
<g>
</g>
<g>
</g>
<g>
</g>
<g>
</g>
<g>
</g>
<g>
</g>
<g>
</g>
<g>
</g>
<g>
</g>
<g>
</g>
<g>
</g>
<g>
</g>
</svg>
