<?xml version="1.0" encoding="iso-8859-1"?>
<!-- Generator: Adobe Illustrator 19.0.0, SVG Export Plug-In . SVG Version: 6.00 Build 0)  -->
<svg xmlns="http://www.w3.org/2000/svg" xmlns:xlink="http://www.w3.org/1999/xlink" version="1.1" id="Layer_1" x="0px" y="0px" viewBox="0 0 512.698 512.698" style="enable-background:new 0 0 512.698 512.698;" xml:space="preserve">
<g>
	<ellipse style="fill:#344A5E;" cx="256.374" cy="124.133" rx="82.133" ry="69.333"/>
	<path style="fill:#344A5E;" d="M295.841,94.267c9.6-17.067,35.2-53.333,96-82.133c3.2-1.067,4.267-5.333,2.133-8.533   c-1.067-3.2-5.333-4.267-8.533-3.2c-71.467,34.133-97.067,77.867-104.533,93.867H295.841z"/>
	<path style="fill:#344A5E;" d="M230.774,94.267c-7.467-16-33.067-59.733-104.533-93.867c-3.2-1.067-6.4,0-8.533,3.2   c-1.067,3.2,0,6.4,3.2,8.533c60.8,28.8,86.4,65.067,96,82.133H230.774z"/>
</g>
<rect x="227.574" y="123.067" style="fill:#F05540;" width="56.533" height="389.333"/>
<g>
	<path style="fill:#415A6B;" d="M119.84,414.267v-25.6l-45.867,12.8c-4.267,1.067-6.4,4.267-8.533,7.467l-24.533,67.2   c-2.133,6.4,1.067,13.867,7.467,16l0,0c6.4,2.133,13.867-1.067,16-7.467l22.4-60.8l35.2-10.667h-2.133V414.267z"/>
	<path style="fill:#415A6B;" d="M140.107,187.067L103.84,176.4l-22.4-60.8c-3.2-6.4-10.667-9.6-17.067-7.467l0,0   c-6.4,2.133-9.6,9.6-7.467,16l24.533,67.2c1.067,3.2,4.267,6.4,8.533,7.467l50.133,13.867V187.067z"/>
	<circle style="fill:#415A6B;" cx="208.374" cy="484.667" r="7.467"/>
	<path style="fill:#415A6B;" d="M119.84,267.067L48.374,294.8c-2.133,1.067-4.267,2.133-6.4,5.333l-18.133,28.8   c-4.267,5.333-2.133,12.8,3.2,16c5.333,4.267,13.867,2.133,17.067-3.2l16-25.6l58.667-22.4v-26.667H119.84z"/>
</g>
<path style="fill:#F3705A;" d="M251.04,142.267c0-12.8-11.733-22.4-23.467-20.267C151.84,136.933,94.24,218,94.24,316.133  S152.907,497.467,227.574,512.4c11.733,2.133,23.467-7.467,23.467-20.267V142.267z"/>
<g>
	<circle style="fill:#415A6B;" cx="175.307" cy="220.133" r="21.333"/>
	<circle style="fill:#415A6B;" cx="147.574" cy="342.8" r="32"/>
	<circle style="fill:#415A6B;" cx="209.44" cy="422.8" r="12.8"/>
	<circle style="fill:#415A6B;" cx="221.174" cy="302.267" r="12.8"/>
	<path style="fill:#415A6B;" d="M464.374,493.2L464.374,493.2c6.4-2.133,9.6-9.6,7.467-16L447.307,410   c-1.067-3.2-4.267-6.4-8.533-7.467L366.241,381.2l-7.467,24.533l66.133,19.2l22.4,60.8   C450.507,492.133,457.974,495.333,464.374,493.2z"/>
	<path style="fill:#415A6B;" d="M448.374,108.133L448.374,108.133c-6.4-2.133-13.867,1.067-16,7.467l-22.4,60.8l-38.4,10.667v26.667   l51.2-14.933c4.267-1.067,6.4-4.267,8.533-7.467l24.533-67.2C457.974,117.733,454.774,110.267,448.374,108.133z"/>
	<circle style="fill:#415A6B;" cx="304.374" cy="484.667" r="7.467"/>
	<path style="fill:#415A6B;" d="M488.907,327.867l-18.133-28.8c-1.067-2.133-3.2-4.267-6.4-5.333l-57.6-22.4v27.733l44.8,17.067   l16,25.6c4.267,5.333,11.733,7.467,17.067,3.2C491.04,341.733,493.174,334.267,488.907,327.867z"/>
</g>
<path style="fill:#F3705A;" d="M261.707,142.267c0-12.8,11.733-22.4,23.467-20.267c75.733,14.933,133.333,96,133.333,194.133  S359.841,497.467,285.174,512.4c-11.733,2.133-23.467-7.467-23.467-20.267V142.267z"/>
<g>
	<circle style="fill:#415A6B;" cx="337.44" cy="220.133" r="21.333"/>
	<circle style="fill:#415A6B;" cx="365.174" cy="342.8" r="32"/>
	<circle style="fill:#415A6B;" cx="303.307" cy="422.8" r="12.8"/>
	<circle style="fill:#415A6B;" cx="291.574" cy="302.267" r="12.8"/>
</g>
<g>
</g>
<g>
</g>
<g>
</g>
<g>
</g>
<g>
</g>
<g>
</g>
<g>
</g>
<g>
</g>
<g>
</g>
<g>
</g>
<g>
</g>
<g>
</g>
<g>
</g>
<g>
</g>
<g>
</g>
</svg>
