<?xml version="1.0" encoding="iso-8859-1"?>
<!-- Generator: Adobe Illustrator 19.0.0, SVG Export Plug-In . SVG Version: 6.00 Build 0)  -->
<svg xmlns="http://www.w3.org/2000/svg" xmlns:xlink="http://www.w3.org/1999/xlink" version="1.1" id="Layer_1" x="0px" y="0px" viewBox="0 0 512.888 512.888" style="enable-background:new 0 0 512.888 512.888;" xml:space="preserve">
<g>
	<path style="fill:#8AD7F8;" d="M132.088,190.56L132.088,190.56L132.088,190.56z"/>
	<path style="fill:#8AD7F8;" d="M140.621,296.16L140.621,296.16L140.621,296.16z"/>
</g>
<path style="fill:#E8EAE9;" d="M342.221,161.76h1.067c1.067,0,2.133-1.067,2.133-1.067c1.067-1.067,1.067,0,1.067,0  c-1.067,1.067-3.2,1.067-4.267,2.133c-1.067,0-1.067,1.067-2.133,1.067c0,0-1.067,1.067-1.067,2.133c1.067,0,1.067,0,2.133,0  c2.133,0,4.267-1.067,6.4,0c1.067,0,1.067,0,1.067-1.067c-1.067,0-2.133,0-3.2-1.067c0,0,0,0,1.067,0s2.133,0,3.2,0c0,0,0,0,1.067,0  s2.133-1.067,3.2-1.067c0,0,0-1.067,0-2.133c0,0,1.067-1.067,2.133-1.067l-1.067,1.067c1.067,1.067,3.2,0,3.2-1.067  c0,0-1.067,0-2.133,0c2.133,0,3.2,0,4.267-1.067c0-2.133,1.067-2.133,3.2-1.067c0,1.067-1.067,0-1.067,1.067  c1.067,0,2.133,0,2.133-1.067c1.067,0,2.133-1.067,2.133-1.067l1.067-1.067c1.067,0,3.2-1.067,4.267-1.067l0,0  c-1.067,1.067-3.2,2.133-5.333,3.2c2.133,0,3.2-1.067,5.333,0c1.067,0,2.133,0,3.2,0h1.067c-2.133-3.2-4.267-6.4-5.333-9.6  c-1.067,0-1.067,0-2.133,1.067h-1.067c-1.067,1.067-3.2,1.067-4.267,3.2c-1.067,0-2.133,0-3.2,0  c-1.067,1.067-1.067,1.067-2.133,1.067l1.067-1.067c-1.067,0-1.067,0-1.067,0l0,0c-1.067,1.067-3.2,1.067-4.267,3.2  c-2.133-1.067-1.067,1.067-2.133,1.067c0,0,0-1.067-1.067-1.067s-1.067,1.067-2.133,1.067l0,0v-1.067c-1.067,0-2.133,0-2.133,0  v1.067c-1.067,0-3.2,2.133-3.2,2.133s-1.067,0-1.067,1.067C343.288,160.694,342.221,160.694,342.221,161.76z"/>
<g>
	<path style="fill:#8AD7F8;" d="M228.088,120.16L228.088,120.16L228.088,120.16z"/>
	<path style="fill:#8AD7F8;" d="M132.088,111.627L132.088,111.627c-1.067,0-2.133,0-3.2,0c4.267-1.067,7.467-1.067,11.733-2.133   c-1.067,0-2.133,0-3.2,0h-1.067c-2.133-1.067-3.2-1.067-5.333-1.067c-2.133,1.067-4.267,3.2-6.4,5.333c0,0,0,0,1.067,0   C127.821,112.694,129.955,112.694,132.088,111.627z"/>
	<path style="fill:#8AD7F8;" d="M107.555,129.76C107.555,129.76,107.555,130.827,107.555,129.76   C107.555,130.827,107.555,130.827,107.555,129.76L107.555,129.76z"/>
</g>
<circle style="fill:#55C0EB;" cx="233.421" cy="242.827" r="224"/>
<g>
	<path style="fill:#E8EAE9;" d="M167.288,312.16v-1.067V312.16c-2.133-1.067-2.133-2.133-3.2-2.133c-1.067-5.333-5.333-6.4-9.6-6.4   c0,0,0,1.067-1.067,1.067c0-1.067,0-1.067,0-2.133c-2.133,0-3.2-1.067-4.267-1.067c-1.067,1.067,0,2.133-1.067,2.133   s-1.067,1.067-2.133,1.067c-2.133,0-2.133-2.133-3.2-3.2c1.067-1.067,1.067-2.133,1.067-4.267c-1.067-1.067-1.067-2.133-2.133-3.2   c-3.2,4.267-5.333,5.333-8.533,5.333c-1.067,0-1.067,0-2.133,0c-1.067-2.133-4.267-3.2-5.333-3.2   c-1.067-1.067-2.133-1.067-3.2-2.133c-2.133,0-4.267,0-6.4,1.067c-1.067-1.067-1.067-1.067-3.2-2.133l-1.067,1.067   c-1.067,3.2-4.267,3.2-6.4,4.267c-2.133,1.067-4.267,2.133-5.333,3.2c-3.2,1.067-4.267-2.133-6.4-3.2   c-2.133,1.067-5.333,0-6.4,2.133c0-1.067,0-1.067,0-2.133c1.067-1.067,3.2-1.067,4.267-2.133c0-1.067,0-2.133-1.067-2.133   c0,0,0,0,0-1.067c-1.067-1.067-2.133-2.133-3.2-3.2c-1.067-1.067-1.067-2.133-3.2,0c1.067-1.067,1.067-1.067,1.067-1.067   c-1.067,0-2.133,0-4.267,0c1.067-2.133,4.267-1.067,4.267-3.2c4.267,3.2,4.267,4.267,6.4,2.133l-1.067-1.067   c0-2.133-1.067-3.2-2.133-4.267c1.067,0,2.133,0,2.133-1.067c1.067-1.067,2.133-2.133,4.267-2.133s4.267,0,5.333-1.067   c0,0,1.067,0,1.067-1.067c1.067,2.133,1.067,3.2,0,5.333c-1.067,2.133-1.067,4.267-2.133,5.333   c1.067,1.067,1.067,1.067,2.133,2.133l1.067,1.067c2.133,0,3.2,1.067,5.333,0c0-1.067,0-1.067,0-1.067   c3.2,1.067,4.267,1.067,6.4-1.067c-1.067,0-1.067-1.067-2.133-1.067l0,0c1.067,0,2.133,0,2.133,1.067c0,1.067,0,1.067,1.067,2.133   c1.067,0,1.067-1.067,2.133,0s2.133,1.067,4.267,1.067c1.067,0,1.067,0,2.133-1.067c2.133,1.067,2.133-1.067,3.2-2.133   c1.067-1.067,2.133-1.067,2.133-2.133c1.067-1.067,2.133-3.2,2.133-4.267c0-4.267-1.067-7.467-4.267-10.667   c-1.067-1.067-2.133-1.067-3.2-1.067c-1.067,0-2.133,0-3.2,1.067c-2.133-1.067-3.2-1.067-5.333-1.067   c-2.133-1.067-3.2-1.067-3.2-3.2c0-1.067-1.067-2.133-1.067-3.2l-1.067-1.067c-2.133,0-2.133-2.133-2.133-2.133   c-1.067,0-2.133-1.067-3.2-1.067c-1.067-1.067-1.067-1.067-2.133-1.067c-2.133-1.067-3.2-3.2-2.133-5.333c0,0,0-1.067,1.067-1.067   h1.067c-2.133-1.067-4.267-1.067-6.4,0c-2.133,1.067-3.2,0-4.267-1.067c-1.067-1.067-1.067-1.067-2.133-1.067   c-1.067,0-3.2,0-4.267,0c0-1.067,0-1.067,0-2.133c-1.067,0-1.067-1.067-2.133-1.067c-2.133,0-4.267,0-5.333,2.133   c0,1.067,1.067,2.133,1.067,3.2c-2.133,1.067-3.2,2.133-5.333,3.2c0-1.067-1.067-2.133-1.067-3.2c0-2.133,2.133-3.2,3.2-4.267   c0-2.133-1.067-3.2-1.067-3.2c-2.133,0-3.2-1.067-4.267-1.067c-1.067,1.067-2.133,2.133-3.2,3.2c-1.067,0-1.067,0-2.133-1.067l0,0   c-1.067,2.133-1.067,4.267-3.2,6.4c0-1.067,1.067-2.133,1.067-3.2c-1.067,1.067-2.133,1.067-2.133,2.133   c0,2.133,0,4.267-1.067,5.333c0-1.067-1.067-3.2,0-4.267c0,0,0-1.067,0-2.133c0-1.067-1.067-2.133-2.133-2.133   c-2.133-1.067-3.2-2.133-5.333-1.067c-1.067,0-2.133,1.067-3.2,0c-1.067,0-2.133,0-3.2-1.067c-2.133-2.133-3.2-3.2-4.267-5.333   c0-1.067,2.133-2.133,0-4.267v-1.067c1.067-1.067,0-1.067,0-2.133c-1.067-1.067,0-2.133,1.067-3.2c1.067,0,1.067-1.067,1.067-2.133   c-1.067-1.067-3.2-1.067-3.2-3.2h-1.067c-1.067,0-2.133,0-4.267,0c-2.133,0-5.333,0-7.467-1.067c1.067-1.067,2.133-2.133,3.2-3.2   c-1.067-1.067-2.133-2.133-1.067-4.267v-1.067c0-2.133,1.067-3.2-1.067-5.333c-1.067-1.067-2.133-1.067-2.133,0   c0,1.067-1.067,2.133-2.133,2.133c-1.067,0-1.067,1.067-1.067,1.067c0,1.067,1.067,1.067,1.067,2.133   c-2.133,1.067-2.133,1.067-3.2,0c-2.133-1.067-5.333-1.067-7.467-1.067c0,0-1.067,0-2.133,0c1.067-1.067,1.067-1.067,2.133-2.133   c-1.067,0-1.067-1.067-2.133-1.067c0,1.067,0,1.067,0,2.133c0,0,0,0-1.067,0c0,1.067,0,3.2,0,5.333c-6.4,57.6,9.6,112,41.6,155.733   c6.4,8.533,12.8,16,19.2,23.467l0,0c1.067,0,1.067,0,2.133,0v-1.067c0-1.067,1.067-1.067,1.067-2.133   c5.333,3.2,10.667,1.067,16,2.133c0-1.067-1.067-1.067-1.067-2.133c-1.067-2.133-2.133-4.267-4.267-4.267l-1.067-1.067   c0-1.067,0-1.067-1.067-2.133c1.067,0,1.067-1.067,1.067-1.067c1.067-2.133,0-3.2-1.067-4.267c0,0,0-1.067-1.067-2.133   c-1.067-1.067-1.067-3.2,0-4.267c1.067-1.067,1.067-2.133,1.067-3.2c-1.067-2.133,0-3.2,1.067-4.267   c0-1.067,1.067-1.067,2.133-1.067s2.133-1.067,4.267-1.067c2.133-1.067,4.267-3.2,6.4-4.267c1.067,2.133,0,4.267-2.133,5.333   c-1.067,1.067-2.133,2.133-3.2,3.2l0,0c1.067,0,2.133,0,3.2,0s2.133-1.067,2.133,0l0,0h-1.067c-3.2,0-4.267,1.067-4.267,4.267   c0,1.067-1.067,2.133-2.133,2.133s-2.133,1.067-3.2,2.133c-1.067-1.067-1.067-1.067-1.067,0c1.067,0,1.067,1.067,2.133,1.067   c1.067,0,1.067-1.067,1.067-2.133c0-1.067,1.067-2.133,2.133-2.133c1.067,0,1.067,0,2.133,0c1.067-1.067,1.067-1.067,2.133-2.133   c0,1.067-1.067,1.067-1.067,2.133c0,1.067,0,2.133-1.067,2.133c0,1.067,1.067,1.067,0,2.133c0,1.067,1.067,1.067,1.067,2.133   h-1.067c0,0-1.067,1.067-1.067,2.133l1.067,1.067c1.067,0,2.133,0,2.133,0c1.067,0,1.067,0,2.133,1.067   c1.067,2.133,3.2,1.067,5.333,1.067c0,0,0,0,0-1.067c-1.067,0-1.067-1.067-2.133-1.067c1.067-1.067,1.067-1.067,1.067-1.067   c1.067-1.067,2.133-2.133,4.267-2.133c2.133-1.067,3.2-2.133,5.333-3.2c0,0,1.067-1.067,0-1.067l-1.067-1.067   c-1.067,0-2.133,0-3.2,0c3.2-1.067,5.333,0,8.533,0c1.067-1.067,2.133-2.133,2.133-2.133c1.067-1.067,2.133-1.067,2.133-1.067   c1.067,0,1.067-1.067,1.067-2.133c0-1.067,0-2.133,0-3.2s1.067-3.2,2.133-4.267c2.133,0,2.133-1.067,2.133-3.2   c1.067,0,1.067,1.067,1.067,1.067c2.133,0,4.267-2.133,6.4-1.067c2.133-1.067,4.267-1.067,6.4-2.133   c1.067-1.067,1.067,1.067,2.133,1.067c2.133-1.067,3.2-2.133,5.333-4.267l1.067-1.067c2.133,0,2.133-2.133,3.2-3.2   c1.067-1.067,1.067-3.2,2.133-4.267c3.2-3.2,4.267-7.467,4.267-11.733c0-2.133,1.067-3.2,2.133-3.2c1.067,0,2.133-1.067,3.2-2.133   c1.067-2.133,2.133-3.2,4.267-4.267s4.267-2.133,5.333-4.267c2.133-3.2,1.067-6.4,0-9.6   C170.488,312.16,169.421,312.16,167.288,312.16z"/>
	<path style="fill:#E8EAE9;" d="M26.488,176.694c0-2.133-2.133-2.133-2.133-4.267c2.133,2.133,2.133,2.133,3.2,1.067   c0-1.067,0-2.133-1.067-3.2c1.067,0,2.133,0,3.2,1.067c0-1.067,0-2.133,0-3.2s1.067-1.067,2.133-2.133   c1.067,1.067,1.067,1.067,1.067,2.133c0-1.067,1.067-1.067,1.067-2.133c1.067,1.067,0,3.2,0,4.267c0,2.133-1.067,3.2-2.133,4.267   c-1.067,1.067-3.2,2.133-3.2,5.333c2.133,0,3.2,0,5.333,1.067c1.067,1.067,2.133,0,3.2,0s1.067,1.067,1.067,1.067   c0-1.067,0-2.133,0-3.2l0,0c0,1.067,0,2.133,1.067,3.2c1.067,0,3.2,1.067,4.267,1.067c2.133,0,3.2,0,5.333,0l0,0   c1.067-2.133,1.067-1.067,0-1.067l0,0c2.133,0,4.267,0,5.333-1.067c2.133-1.067,3.2-2.133,4.267-4.267h1.067   c1.067-1.067,2.133-1.067,3.2-2.133c1.067-1.067,2.133-2.133,4.267-2.133c2.133-1.067,4.267-2.133,5.333-4.267   c1.067,0,2.133-1.067,2.133-3.2c0-1.067,1.067-2.133,2.133-2.133s2.133-1.067,3.2-1.067c1.067-1.067,3.2-1.067,4.267-2.133   c1.067,0,2.133-1.067,3.2-1.067c1.067,0,3.2,0,5.333,0c1.067,0,2.133-1.067,3.2-2.133c1.067-2.133,4.267-4.267,6.4-4.267   c2.133,0,4.267-1.067,6.4-1.067h1.067c2.133,0,4.267,0,5.333,0c1.067-1.067,1.067-1.067,1.067-3.2l-1.067-1.067l0,0   c1.067-1.067,1.067-1.067,1.067-2.133c-2.133-1.067-2.133-1.067-2.133-2.133c2.133,1.067,2.133,1.067,5.333,0   c0-2.133,0-2.133-2.133-2.133c-4.267-1.067-9.6,0-13.867,2.133c-1.067,1.067-2.133,1.067-3.2,1.067   c2.133-1.067,3.2-2.133,5.333-3.2c1.067-1.067,3.2-1.067,4.267-1.067c1.067,0,1.067,0,2.133-1.067   c1.067-1.067,3.2-1.067,4.267-1.067c5.333,1.067,9.6,2.133,14.933,3.2c1.067,0,2.133,0,3.2,0c2.133-1.067,4.267-1.067,6.4-1.067   s3.2,0,5.333-1.067c0-1.067,0-2.133,0-2.133c1.067-2.133,0-2.133-1.067-3.2c-2.133,0-2.133-2.133-4.267-3.2h1.067v-1.067   c-2.133-1.067-3.2-1.067-5.333-2.133l-1.067-1.067c-1.067-1.067-1.067-1.067-2.133-2.133c-1.067-1.067-1.067-1.067,0-2.133v-1.067   c0-1.067-1.067-2.133-2.133-3.2c0-1.067-1.067-1.067-1.067-2.133c-1.067-2.133-3.2-4.267-4.267-6.4   c-1.067,1.067-2.133,2.133-3.2,2.133c-2.133,2.133-4.267,2.133-6.4,2.133c-1.067,0-1.067,0-2.133-1.067   c-1.067-1.067-2.133-2.133-3.2-2.133l-1.067-1.067c0-1.067,0-3.2,1.067-4.267c0,0,0,0-1.067,0c-4.267-2.133-5.333-3.2-7.467-5.333   c-1.067-1.067-3.2-3.2-6.4-2.133h-1.067c-2.133-1.067-4.267-2.133-6.4-2.133c-1.067,0-2.133,0-2.133,0   c0,1.067,1.067,2.133,2.133,2.133c-1.067,1.067-2.133,1.067-3.2,2.133c2.133,1.067,3.2,1.067,3.2,3.2   c-1.067,0-1.067,1.067-2.133,1.067c0,1.067-1.067,1.067-1.067,2.133c0,1.067,1.067,2.133,1.067,2.133   c2.133,3.2,1.067,5.333-2.133,6.4c-1.067,0-2.133,1.067-3.2,1.067c-1.067,0-2.133,1.067-1.067,2.133c0,1.067,0,1.067,0,2.133v1.067   c1.067,2.133,0,3.2-1.067,4.267c0,1.067-3.2,1.067-4.267,1.067c-1.067-1.067-2.133-1.067-4.267,0h-1.067v-1.067   c0,0,0-1.067,1.067-1.067c-1.067,0-1.067,0-2.133,0c-2.133,0-2.133-1.067-3.2-2.133c0-1.067,0-2.133,1.067-2.133c0,0,0,0,0-1.067   c1.067-1.067,1.067-2.133-1.067-3.2c-1.067-1.067-2.133-1.067-4.267-2.133c-1.067,0-2.133-1.067-2.133-1.067   c-1.067-1.067-2.133-1.067-3.2-2.133c-1.067,0-1.067,0-2.133-1.067c-14.933,20.267-27.733,43.733-35.2,69.333   c2.133-1.067,4.267-1.067,6.4-1.067C25.421,176.694,25.421,176.694,26.488,176.694z"/>
	<path style="fill:#E8EAE9;" d="M444.621,168.16c-1.067,0-1.067,0-2.133,0c-1.067,0-3.2,0-5.333,0   c-2.133-1.067-4.267-1.067-5.333-1.067c-2.133,0-3.2,0-5.333,0c-1.067,0-2.133,0-2.133,1.067c-3.2-1.067-3.2-1.067-5.333,0   c1.067,0,1.067,0,2.133,1.067c-1.067,1.067-3.2,1.067-3.2,3.2l0,0c0-1.067-1.067-1.067-1.067-2.133l1.067-1.067   c-1.067,0-2.133,0-3.2,1.067c-1.067,0-2.133,0-2.133,2.133c1.067,0,1.067,0,2.133,0c-1.067,1.067-2.133,1.067-3.2,1.067   c0,0,0,0,0,1.067c0,2.133-2.133,1.067-2.133,2.133c-2.133,1.067-3.2,2.133-3.2,5.333c4.267-1.067,7.467-1.067,12.8-2.133   c-2.133,1.067-5.333,0-5.333,3.2c-2.133-1.067-3.2,0-5.333,0s-3.2,0-4.267,2.133c-1.067,1.067-2.133,3.2-3.2,4.267c0,0,0,0-1.067,0   c1.067-2.133-1.067-2.133-2.133-3.2c1.067,0,1.067-1.067,2.133-1.067c-1.067,0-1.067-1.067-2.133-1.067   c1.067-1.067,1.067-2.133,2.133-2.133c-1.067-1.067-2.133-3.2-4.267-2.133c-1.067,0-2.133,0-3.2,0s-2.133,0-3.2-1.067   c1.067-1.067,2.133-1.067,4.267-1.067c1.067,0,3.2-1.067,4.267,0c2.133,0,2.133,1.067,3.2-1.067   c-2.133-1.067-4.267-1.067-5.333-3.2h-1.067c-2.133,0-4.267-1.067-5.333,1.067l0,0l0,0c-1.067-2.133-1.067-2.133-3.2,0   c-1.067,1.067-2.133,2.133-3.2,4.267c-1.067,1.067-1.067,1.067-2.133,0c0-1.067,0-2.133,0-3.2c-1.067,0-1.067-1.067-2.133-1.067   c0-1.067,1.067-1.067,1.067-2.133c-1.067-1.067-1.067-1.067-2.133-1.067l0,0c1.067,0,2.133,0,3.2,0c0,1.067,0,1.067,0,1.067l0,0   h1.067c2.133,1.067,3.2,0,4.267,0c1.067,0,1.067-1.067,1.067-1.067h-1.067c1.067-1.067,1.067-1.067,2.133-1.067l1.067-1.067   c0-1.067,0-1.067-1.067-1.067s-1.067,0-2.133,0c1.067-1.067,1.067-1.067,2.133-2.133c-1.067,0-2.133-1.067-3.2-1.067l1.067-1.067   c1.067,1.067,2.133,0,2.133-1.067s1.067-1.067,2.133-1.067c2.133,0,4.267-2.133,6.4-3.2c-1.067,0-1.067-1.067-2.133-1.067   c1.067-1.067,3.2,0,4.267-1.067c-1.067,0-2.133,0-2.133-1.067c-1.067-1.067-1.067-1.067-2.133-1.067c-3.2,0-6.4-1.067-8.533,1.067   c0,0,0,0-1.067,0l-1.067-1.067c-3.2,0-5.333,1.067-8.533,1.067c-1.067,2.133,2.133,1.067,2.133,3.2   c-2.133,1.067-3.2,2.133-5.333,3.2c-3.2-2.133-5.333-2.133-6.4,1.067h-1.067h-1.067c-1.067-1.067-2.133,0-3.2,1.067   c0,1.067-1.067,1.067-2.133,1.067c-2.133,1.067-2.133,1.067-2.133,3.2c0,1.067,0,2.133-2.133,3.2c0,0-1.067,1.067-1.067,2.133   l-1.067,1.067c1.067-4.267,0-4.267-3.2-3.2c-1.067,0-2.133,0-4.267,0c1.067,0,2.133-1.067,2.133-1.067   c2.133,0,3.2-1.067,4.267-2.133c0,0,0-1.067-1.067-2.133c-1.067,1.067-1.067,2.133-3.2,1.067l-1.067,1.067l-1.067,1.067   c-1.067,0-2.133,1.067-2.133,1.067c-1.067,1.067-2.133,1.067-3.2,1.067c1.067,1.067,1.067,2.133,2.133,3.2   c-1.067,0-1.067,1.067-2.133,1.067s-1.067,0-2.133,1.067c0,1.067,0,2.133,1.067,2.133c-1.067,0-2.133,0-3.2-1.067l0,0l-1.067,1.067   c0,0,1.067,1.067,1.067,2.133c-1.067,0-2.133,0-3.2,1.067c-1.067,1.067-2.133,1.067-3.2,2.133s-2.133,1.067-3.2,2.133   c0,0,1.067,0,1.067,1.067c0,2.133,1.067,2.133,2.133,2.133s2.133,0,4.267,1.067l0,0c-1.067,0-3.2,1.067-4.267,1.067   c0-2.133-2.133-2.133-3.2-2.133c-1.067,0-2.133,0-3.2,0c-1.067-1.067-2.133-1.067-3.2,0c-1.067,0-1.067,1.067-1.067,2.133   c-2.133-1.067-4.267-1.067-7.467,0c-2.133,0-4.267,0-6.4,0h-1.067c-1.067-1.067-1.067-1.067-2.133-2.133c0-1.067,0-1.067,0-2.133   c-2.133,0-4.267,1.067-5.333-1.067c2.133,0,3.2-1.067,5.333-1.067c3.2,0,5.333,0,8.533,0s5.333-1.067,8.533-3.2   c1.067-1.067,2.133-2.133,3.2-3.2c-1.067-1.067-2.133-2.133-3.2-1.067c-1.067,0-3.2,0-4.267,0c-3.2,0-6.4,0-9.6,0   c-3.2,0-5.333,0-7.467,2.133c-2.133-1.067-3.2-2.133-5.333,0c-1.067,1.067-3.2,1.067-5.333,1.067l0,0   c1.067-1.067,1.067-1.067,2.133-2.133l0,0c-2.133,0-4.267,0-6.4,1.067v-1.067c-3.2-1.067-2.133,2.133-4.267,2.133c0,0,0,0,0-1.067   c0,0,0,0,0-1.067c-1.067,1.067-2.133,2.133-3.2,3.2l0,0c1.067-1.067,1.067-2.133,2.133-3.2c-3.2,1.067-6.4,3.2-9.6,4.267   c0,0,0,0,1.067,0c-2.133,1.067-3.2,2.133-4.267,3.2c-2.133-1.067-2.133,1.067-3.2,1.067c-1.067-1.067-2.133-1.067-3.2,0   c-1.067,1.067-2.133,2.133-3.2,2.133l-1.067,1.067h1.067c-1.067,2.133-3.2,0-4.267,1.067v1.067l0,0c1.067,2.133,2.133,0,2.133,0   c-1.067,1.067-2.133,1.067-3.2,2.133c-1.067,1.067-1.067,2.133-2.133,3.2c-1.067,1.067-1.067,2.133-2.133,3.2   c-1.067,1.067-1.067,4.267-3.2,5.333c-1.067,1.067-2.133,1.067-3.2,3.2c-1.067,2.133-4.267,3.2-5.333,5.333   c-2.133,2.133-4.267,3.2-6.4,4.267c-1.067,0-1.067,1.067-2.133,1.067c0,3.2,3.2,4.267,4.267,7.467c2.133,0,0,1.067,1.067,2.133   c2.133,1.067,5.333,1.067,7.467-1.067c2.133-2.133,4.267-3.2,6.4-5.333c1.067,0,1.067,1.067,2.133,1.067   c2.133,2.133,3.2,3.2,6.4,4.267l1.067,1.067c1.067,2.133,2.133,2.133,4.267,1.067l-1.067-1.067c2.133-1.067,3.2-1.067,5.333-2.133   c1.067-2.133,1.067-3.2,0-6.4c0,0-1.067,0-2.133,0c1.067,0,1.067-1.067,2.133-1.067c-2.133,0-3.2,0-5.333,0   c2.133-1.067,4.267-2.133,6.4-3.2c-1.067,0-1.067,0-1.067,0c0-1.067,0-2.133,0-3.2c0-1.067,0-2.133,0-3.2   c1.067-2.133,3.2-4.267,5.333-6.4c1.067-1.067,2.133-1.067,2.133-2.133c0,0,1.067-1.067,1.067-2.133   c-1.067-2.133,0-3.2,1.067-4.267c2.133-1.067,3.2-1.067,5.333-2.133c2.133-1.067,3.2-1.067,5.333,0   c1.067,0,2.133,1.067,2.133,2.133c-1.067,0-2.133,1.067-3.2,1.067c-2.133,2.133-3.2,4.267-4.267,6.4   c-1.067,1.067-2.133,0-3.2,2.133c1.067,1.067,1.067,1.067,2.133,2.133c1.067,1.067,1.067,1.067,2.133,2.133   c3.2,1.067,6.4,0,8.533-2.133c1.067-1.067,2.133-1.067,3.2-2.133c3.2-1.067,6.4-2.133,9.6-5.333c1.067-1.067,2.133-1.067,3.2-1.067   c2.133,0,5.333,0,7.467,0c0,1.067,0,2.133,0,4.267l-1.067,1.067c-2.133,1.067-2.133,1.067-1.067,3.2   c-1.067,0-1.067,1.067-1.067,1.067c0,1.067,0,2.133-2.133,1.067c-1.067-1.067-2.133,0-3.2,0c0,0-1.067,0-1.067,1.067   c1.067-2.133,2.133-3.2,2.133-4.267c-2.133-1.067-4.267-2.133-5.333,0c-1.067,1.067-1.067,1.067,0,2.133   c-1.067,1.067-2.133,0-2.133,2.133c0,1.067,1.067,3.2,3.2,2.133c-1.067,1.067-1.067,1.067-2.133,3.2c0-2.133-2.133-1.067-3.2-2.133   c-1.067-1.067-2.133,0-3.2,1.067l-1.067-1.067c-2.133,3.2-2.133,3.2-1.067,6.4c0,1.067,0,1.067,0,2.133s0,2.133-1.067,2.133   l-1.067,1.067c0-2.133,0-2.133-2.133-3.2l-1.067-1.067c-1.067,0-1.067-1.067-2.133-1.067c0,1.067-1.067,2.133-1.067,2.133h-1.067   c0,1.067,0,2.133,1.067,3.2c1.067,1.067,2.133,1.067,3.2,0c1.067,0,2.133,0,2.133,1.067c-2.133,1.067-4.267,2.133-6.4,3.2   c-1.067,0-1.067,0-2.133,0c-1.067,1.067-2.133,2.133-4.267,3.2c0-1.067-1.067-1.067-1.067-2.133c-1.067-1.067-1.067-1.067-2.133,0   c-2.133,2.133-4.267,3.2-6.4,5.333l1.067,1.067c-1.067,0-1.067,1.067-2.133,1.067c0,0,1.067,0,1.067,1.067h1.067   c0,1.067,0,2.133-2.133,3.2c0,0-1.067,0-2.133,0c-1.067,0-1.067,0-2.133,0s-2.133,1.067-3.2,1.067c0-1.067-2.133-1.067-2.133-1.067   c-1.067-1.067-2.133,0-3.2,0c0,0,0,1.067-1.067,1.067c1.067,0,2.133,0,3.2,0l0,0c-2.133,1.067-5.333,1.067-7.467,2.133v1.067   c-1.067,0-1.067,0-2.133,0c0,1.067,0,2.133,0,3.2c-1.067,0-2.133,1.067-2.133,1.067c-1.067,0-2.133,1.067-3.2,1.067   c-1.067,0-2.133,1.067-3.2,2.133c-1.067,1.067-2.133,1.067-4.267,1.067c-1.067,0-1.067-1.067-2.133,0c0,0,0,1.067,1.067,1.067   c-1.067,2.133-4.267,2.133-4.267,4.267c-1.067,0-1.067,0-2.133,0c-1.067,0-2.133,1.067-2.133,1.067   c0,2.133-1.067,2.133-2.133,2.133c-2.133,0-4.267,0-6.4,2.133c1.067,0,2.133,1.067,2.133,1.067c2.133,0,4.267,1.067,5.333-2.133   c1.067,0,2.133,1.067,2.133,1.067c0,1.067,0,1.067,0,2.133c1.067,0,2.133,0,2.133,0c2.133,1.067,1.067,3.2,2.133,4.267   c0,1.067-1.067,1.067-1.067,2.133c-1.067,1.067-1.067,2.133,0,2.133c-1.067,1.067-3.2,2.133-5.333,2.133   c-4.267,1.067-7.467,2.133-11.733,2.133c-3.2,0-4.267,2.133-6.4,3.2c1.067,1.067,1.067,1.067,2.133,2.133   c0,1.067,1.067,2.133,1.067,3.2c1.067,1.067,1.067,3.2,0,4.267c0,1.067,0,2.133-1.067,3.2c0,0,0,0,1.067,0   c0-1.067,1.067-1.067,1.067-2.133c0,2.133,1.067,4.267,1.067,6.4c2.133-1.067,4.267-1.067,6.4-2.133   c1.067,0,1.067-1.067,2.133-1.067c0,1.067,0,2.133,0,3.2c0,0,1.067,0,1.067,1.067c2.133-2.133,3.2-3.2,6.4-4.267   c1.067,0,2.133-1.067,3.2-1.067c0,0,1.067,0,1.067-1.067c1.067-2.133,3.2-4.267,4.267-6.4c-1.067,0-1.067-1.067-2.133-1.067   c1.067-2.133,2.133-4.267,3.2-5.333l1.067-1.067c1.067-1.067,3.2-2.133,4.267-3.2c-1.067-1.067-1.067-3.2-1.067-4.267   c1.067-1.067,2.133-1.067,3.2-2.133c1.067,0,2.133-1.067,2.133-1.067c3.2,2.133,5.333,1.067,7.467-2.133c0,0,1.067,0,1.067-1.067   c1.067-1.067,1.067-1.067,2.133-2.133c1.067-1.067,2.133-1.067,3.2-1.067c1.067,0,3.2-1.067,3.2,1.067l1.067,1.067   c3.2,1.067,5.333,2.133,8.533,2.133c2.133,0,3.2,0,4.267,1.067c1.067,0,1.067,1.067,1.067,1.067c2.133,0,3.2,1.067,4.267,2.133   c0,1.067,0,2.133-1.067,3.2c2.133-1.067,2.133-3.2,3.2-5.333c-1.067,0-1.067-1.067-2.133-1.067c-1.067-3.2,2.133-2.133,3.2-3.2   c-2.133-1.067-5.333-1.067-7.467-1.067c0-1.067,1.067-1.067,1.067-2.133c-3.2,1.067-6.4,1.067-8.533-2.133   c-1.067-1.067-2.133-1.067-3.2-1.067c-2.133,0-4.267,0-6.4,0c-1.067,0-3.2,0-4.267,0c0-1.067,1.067-1.067,2.133-1.067   c2.133,0,3.2-1.067,4.267-2.133c1.067-1.067,2.133-1.067,3.2-2.133c1.067,0,2.133,0,2.133,1.067l1.067,1.067   c1.067,0,1.067-1.067,2.133-1.067c2.133,2.133,4.267,3.2,6.4,3.2c1.067,0,1.067,0,2.133,0c2.133,0,5.333,1.067,7.467,1.067   c0,1.067,1.067,3.2,1.067,4.267c1.067,1.067,3.2,2.133,5.333,2.133l0,0c1.067,0,2.133,1.067,2.133,1.067   c-1.067,2.133,1.067,2.133,1.067,3.2c1.067,0,3.2,0,4.267,0c-1.067-1.067-1.067-1.067-1.067-2.133c1.067,0,1.067,0,1.067,0   s0-1.067-1.067-1.067c1.067-1.067,2.133-1.067,3.2-1.067c-1.067-1.067-1.067-2.133-3.2-1.067c-1.067,0-2.133,0-2.133,0   c-1.067-2.133-3.2-2.133-3.2-4.267c0,0,0,0,1.067,0c2.133,0,3.2,0,4.267-1.067c1.067-2.133,4.267,0,5.333-2.133l0,0   c1.067,1.067,2.133,0,3.2,0c1.067-1.067,3.2-1.067,5.333-1.067c-1.067,1.067-1.067,2.133-2.133,2.133l-1.067,1.067   c-1.067,0-3.2,1.067-4.267,1.067c0,1.067,0,2.133,0,3.2c2.133,1.067,0-2.133,2.133-1.067c0,1.067,1.067,2.133,2.133,3.2   c-1.067,0-1.067,0-2.133,0c0,0,0,0,0,1.067c2.133,0,4.267,1.067,4.267,2.133c2.133,0,4.267-1.067,6.4,1.067c0,0,1.067,0,2.133,0   c2.133,0,1.067-2.133,2.133-3.2c1.067,0,2.133,0,4.267,1.067c1.067,0,2.133,0,3.2,0s2.133-1.067,3.2-2.133   c1.067-1.067,2.133-2.133,3.2-2.133v-1.067c2.133,1.067,1.067,2.133,1.067,3.2c1.067,3.2,1.067,5.333,0,8.533   c0,1.067,0,1.067,0,2.133c0,3.2-1.067,4.267-3.2,6.4c-1.067,0-1.067,1.067-2.133,2.133c2.133,3.2,3.2,6.4,7.467,6.4   c0-1.067,0-3.2,0-4.267l0,0c0,1.067,0,1.067,0,2.133c1.067,0,2.133,1.067,2.133,1.067c2.133,1.067,3.2,2.133,5.333,4.267   c1.067,1.067,1.067,1.067,2.133,2.133c0,1.067,1.067,1.067,2.133,1.067c3.2,0,5.333,2.133,6.4,5.333   c1.067,2.133,2.133,3.2,4.267,4.267c2.133,1.067,4.267,2.133,5.333,4.267c1.067,1.067,1.067,2.133,2.133,2.133   c2.133,0,3.2,2.133,3.2,3.2c1.067,3.2,2.133,5.333,3.2,8.533c1.067,1.067,2.133,2.133,3.2,1.067c2.133-2.133,5.333-3.2,7.467-5.333   l0,0c1.067-2.133,4.267-2.133,5.333-4.267h1.067c2.133-1.067,4.267-2.133,5.333-4.267c0-1.067,0-1.067-1.067-2.133   c2.133-1.067,3.2-3.2,5.333-3.2c1.067-1.067,3.2-1.067,3.2-3.2l1.067-1.067c0,0,1.067-1.067,2.133-1.067   c0-4.267,2.133-4.267,3.2-5.333c0-1.067,0-1.067,0-2.133v-1.067c-1.067,0-1.067,0-1.067-1.067l1.067-1.067   c2.133,0,3.2-2.133,3.2-4.267v-1.067c-1.067-1.067-2.133-1.067-2.133-1.067c-1.067-1.067-2.133-1.067-3.2-1.067   c-4.267,1.067-6.4-1.067-6.4-5.333v-1.067c-1.067,2.133-2.133,4.267-3.2,6.4c0,1.067-1.067,1.067-2.133,2.133l-5.333,4.267   c-2.133,0-2.133-2.133-2.133-2.133c-1.067,0-1.067-1.067-2.133-1.067c-1.067-1.067-2.133-2.133-3.2-3.2   c-1.067-1.067-1.067-1.067-2.133-2.133l-1.067-1.067c-2.133,0-3.2-2.133-4.267-3.2c-1.067-1.067-1.067-2.133-2.133-3.2   c-1.067-3.2-3.2-2.133-5.333-2.133s-4.267-1.067-6.4-2.133c0,0,0,0,0-1.067c0-1.067,0-1.067-1.067-1.067c0,0-1.067,0-1.067-1.067   c0,0,0-1.067,1.067-1.067h-1.067c0-1.067,1.067-2.133,1.067-3.2c1.067,0,3.2,0,4.267,1.067c3.2,2.133,6.4,2.133,8.533,3.2   c1.067-1.067,2.133-2.133,3.2-1.067c2.133,2.133,4.267,3.2,6.4,4.267c1.067,0,1.067,1.067,1.067,2.133   c0,2.133,2.133,1.067,2.133,2.133c1.067,1.067,3.2,1.067,4.267,1.067c3.2,1.067,5.333,0,7.467-1.067   c1.067-1.067,2.133-1.067,3.2-2.133c0,1.067,1.067,1.067,1.067,2.133c1.067,1.067,1.067,2.133,3.2,2.133   c2.133,0,3.2-1.067,5.333-1.067c2.133,0,4.267-1.067,6.4-2.133c1.067,0,1.067,1.067,3.2,0c1.067-1.067,3.2-1.067,5.333-2.133   c2.133,0,3.2-1.067,4.267-3.2c1.067,1.067,1.067,2.133,2.133,2.133c2.133,0,3.2,0,3.2-1.067c0-1.067,0-2.133-3.2-3.2   c0-2.133-1.067-3.2-1.067-5.333c1.067,0,1.067-1.067,2.133-1.067h2.133c0,2.133,2.133,1.067,2.133,3.2c2.133,2.133,3.2,3.2,3.2,6.4   c2.133,0,3.2-2.133,5.333-3.2v1.067c0,2.133,1.067,4.267,3.2,4.267c2.133,0,3.2,1.067,4.267,2.133c0,1.067-1.067,1.067,0,2.133   s0,2.133,0,4.267c0,1.067,0,2.133,1.067,2.133s1.067,1.067,1.067,1.067c0,2.133,1.067,3.2,2.133,5.333   c1.067-2.133,1.067-5.333,2.133-7.467C461.688,243.894,457.421,204.427,444.621,168.16z"/>
	<path style="fill:#E8EAE9;" d="M383.821,404.96c-1.067-2.133-2.133-5.333-2.133-7.467c0,0,0-1.067-1.067-1.067   c-2.133-1.067-2.133-2.133-3.2-3.2s-2.133-2.133-3.2-2.133l0,0l0,0c1.067,0,1.067,0,2.133-1.067c0-3.2,0-3.2-2.133-3.2   c0-2.133,0-4.267,0-6.4c1.067-2.133,1.067-5.333,0-7.467v-1.067c2.133,0,3.2-2.133,2.133-4.267s-1.067-3.2-1.067-5.333   c3.2,0,5.333-4.267,8.533-4.267c0,0,0,0,0-1.067c1.067-1.067,1.067-1.067,2.133-2.133c2.133-4.267,4.267-7.467,5.333-11.733   c0-1.067,0-1.067-1.067-2.133c4.267-5.333,4.267-10.667,3.2-17.067h-1.067c-2.133,1.067-3.2,3.2-5.333,3.2   c-3.2,1.067-5.333,4.267-8.533,4.267c0,0-1.067,0-1.067,1.067c-2.133,2.133-3.2,2.133-5.333,0c-1.067,0-1.067-1.067-2.133-2.133   c1.067-2.133,1.067-2.133-1.067-3.2c-2.133-1.067-4.267-2.133-6.4-3.2c-1.067,0-1.067,0-2.133,0c0,0,0,0,0,1.067   c1.067,1.067,2.133,2.133,2.133,3.2c-1.067,1.067-2.133,1.067-2.133,0c-1.067-1.067-1.067-2.133-1.067-2.133s0-1.067-1.067-1.067   c-2.133-1.067-3.2-3.2-4.267-4.267c-1.067-1.067-2.133-2.133-4.267-2.133c-1.067,0-1.067,0-2.133-1.067   c-1.067-1.067-1.067-3.2-2.133-4.267c-1.067-2.133-2.133-5.333-5.333-5.333c-1.067,0-2.133-1.067-2.133-2.133   c0-2.133-2.133-3.2-3.2-4.267c-2.133-2.133-5.333-5.333-7.467-7.467c-1.067-1.067-2.133-2.133-3.2-4.267   c0-1.067-1.067-1.067-2.133-1.067l-1.067,1.067c-2.133,0-3.2,0-5.333,0h-1.067c-1.067,0-2.133,0-3.2,0   c-3.2,0-5.333-1.067-8.533,1.067c-1.067-2.133-3.2-1.067-5.333-1.067c-1.067,0-1.067,0-2.133,0   c-2.133-1.067-5.333-1.067-7.467,1.067c-1.067,1.067-1.067,2.133,0,3.2c0,1.067,0,1.067,1.067,2.133l0,0l1.067-1.067   c1.067,0,2.133,1.067,3.2,1.067c2.133,0,5.333,0,7.467-1.067c0,0,1.067,0,2.133,0c-2.133,1.067-4.267,1.067-5.333,1.067   c-2.133,0-3.2,1.067-2.133,3.2c0,0,0,0,0,1.067c-2.133-1.067-4.267-1.067-6.4-1.067h-1.067c-1.067-1.067-3.2-1.067-4.267-2.133   c-2.133-1.067-4.267,0-5.333,0s-2.133,1.067-3.2,0c-1.067,0-1.067,0-2.133-1.067c0-1.067,0-1.067,0-2.133   c-2.133-1.067-4.267-1.067-6.4,0c-1.067,0-1.067,1.067-2.133,1.067c-1.067,0-1.067,0-2.133,0c-2.133-1.067-4.267-2.133-5.333-3.2   c1.067-1.067,2.133-2.133,2.133-3.2c0-1.067-1.067-2.133-2.133-2.133c0-1.067,1.067-2.133,1.067-2.133   c-2.133,1.067-2.133,1.067-3.2,0c-1.067-1.067-2.133,0-2.133,0c-1.067,1.067-2.133,2.133-4.267,2.133c-1.067,0-2.133,0-3.2,1.067   c-1.067,1.067-2.133,1.067-4.267,1.067c-1.067,0-2.133,0-2.133,1.067c-2.133,1.067-4.267,2.133-6.4,3.2   c-2.133,1.067-3.2,2.133-3.2,4.267c-1.067,0-2.133,0-3.2,1.067c-1.067,1.067-2.133,2.133-4.267,2.133c-1.067,0-2.133,0-2.133,0   c-2.133,1.067-4.267,1.067-6.4,0c-2.133,2.133-1.067,3.2,1.067,4.267c-1.067,0-2.133,1.067-2.133,1.067   c-1.067,1.067-2.133,2.133-4.267,3.2c-2.133,2.133-2.133,4.267-3.2,6.4c0,1.067,0,2.133,1.067,2.133   c1.067,1.067,1.067,1.067,0,2.133c-1.067,2.133-2.133,4.267-4.267,6.4c-1.067,1.067-3.2,2.133-3.2,4.267c0,0,0,1.067-1.067,1.067   c-2.133,1.067-2.133,3.2-2.133,5.333c0,2.133,0,3.2-1.067,4.267c-2.133,3.2-1.067,7.467,2.133,9.6   c1.067,1.067,3.2,1.067,5.333,2.133c1.067,0,2.133,1.067,3.2,3.2c0,1.067,0,2.133,0,2.133c0,1.067,1.067,2.133,1.067,2.133   c0-1.067,1.067-1.067,1.067-2.133c1.067,1.067,2.133,1.067,1.067,2.133c0,1.067,1.067,2.133,1.067,2.133c1.067,0,2.133,0,3.2,1.067   c-1.067,0-1.067,1.067-2.133,1.067c-2.133-1.067-4.267-2.133-5.333-3.2c-1.067,1.067,0,2.133,1.067,2.133   c2.133,1.067,3.2,3.2,3.2,5.333c-2.133,1.067-2.133,2.133-2.133,5.333c0,1.067,1.067,2.133,2.133,3.2   c1.067,1.067,3.2,1.067,4.267,1.067c1.067,0,1.067,1.067,1.067,1.067c0,1.067,0,1.067,1.067,2.133c1.067,0,1.067,0,2.133,0   c3.2,1.067,6.4,3.2,8.533,5.333c3.2,1.067,5.333,1.067,7.467-1.067c0,0,0,0,1.067,0s2.133-1.067,3.2-2.133   c0,0,2.133-1.067,3.2-1.067h1.067c1.067,0,2.133,0,3.2,0c3.2,0,6.4-1.067,7.467-5.333l1.067-1.067c1.067,0,1.067-1.067,2.133-1.067   c1.067-1.067,2.133-4.267,5.333-2.133l0,0c3.2,0,5.333-1.067,8.533,1.067c1.067,0,1.067-1.067,2.133-1.067   c1.067,2.133,1.067,2.133,4.267,2.133c0-1.067-1.067-2.133-1.067-2.133c1.067-1.067,1.067-1.067,2.133-2.133c0,0,0,0,0,1.067v1.067   c-1.067,1.067-1.067,2.133,1.067,2.133c1.067,0,2.133,1.067,3.2,2.133c1.067-1.067,1.067-1.067,2.133-1.067c0,0,0,0,1.067,1.067   c2.133,2.133,1.067,4.267,1.067,6.4c0,1.067,0,3.2,2.133,4.267c0,1.067-3.2,1.067-1.067,3.2c1.067-1.067,1.067-2.133,3.2,0   l-1.067,1.067c-1.067,2.133-1.067,3.2-1.067,4.267c2.133,2.133,3.2,3.2,5.333,4.267c1.067,0,1.067,0,2.133,1.067   c0,1.067,1.067,2.133,2.133,3.2c1.067,0,1.067,0,1.067-1.067l0,0l-1.067,1.067c1.067,2.133,2.133,3.2,4.267,4.267   c0,0,0,1.067,0,2.133c0,1.067,0,3.2,1.067,3.2c2.133,1.067,3.2,5.333,1.067,7.467c-1.067,1.067-1.067,3.2-1.067,4.267   c0,2.133,0,4.267,0,6.4c0,3.2,1.067,5.333,4.267,7.467c1.067,0,1.067,1.067,2.133,1.067c2.133,2.133,3.2,4.267,5.333,5.333   c1.067,0,1.067,1.067,1.067,2.133c19.2-7.467,38.4-18.133,54.4-32l0,0c4.267-3.2,8.533-7.467,12.8-10.667v-1.067   C383.821,406.027,383.821,404.96,383.821,404.96z"/>
	<path style="fill:#E8EAE9;" d="M239.821,99.894C239.821,99.894,239.821,98.827,239.821,99.894c1.067,0,2.133,0,3.2,0   c0-1.067,0-1.067,0-2.133c2.133,0,3.2,0,4.267,2.133c0,1.067,1.067,1.067,2.133,1.067c1.067,0,3.2,0,4.267,1.067   c0-1.067,0-2.133,0-2.133c-1.067,0-2.133-1.067-2.133-2.133c0,0-1.067-1.067-2.133-1.067s-2.133-1.067-2.133-1.067   c-2.133-1.067-2.133-2.133-2.133-3.2c2.133,3.2,4.267,3.2,7.467,4.267c0-1.067,0-2.133,0-2.133c-1.067,0-2.133-1.067-3.2-2.133   c1.067,0,3.2,2.133,4.267,0h1.067c1.067,0,2.133,1.067,3.2,0c0,0-1.067-1.067-2.133-1.067c2.133,0,4.267,0,5.333,0l0,0   c-2.133,0-2.133-2.133-4.267-2.133l0,0c1.067,0,2.133,0,3.2,0c0-3.2,0-3.2-3.2-3.2c-1.067,0-2.133,0-2.133,0   c-2.133-2.133-3.2-1.067-5.333,0h-1.067c4.267-3.2,3.2-2.133,2.133-4.267c2.133,0,3.2,0,5.333,0   c1.067-1.067,1.067-1.067,2.133-2.133c-1.067,0-3.2-1.067-4.267-1.067c-2.133,0-3.2-1.067-5.333,0c-3.2,1.067-7.467,0-10.667-1.067   c3.2-2.133,4.267-2.133,5.333-2.133c-1.067,0-2.133,0-4.267-1.067c0-1.067,0-1.067,0-2.133c1.067,0,2.133,0,3.2,0   c1.067,0,2.133,1.067,4.267,0c0,0,1.067,0,2.133,0c0,0,0,1.067,0,2.133c5.333,0,9.6,2.133,14.933,1.067v1.067   c3.2,2.133,6.4,1.067,9.6,0c4.267-1.067,8.533-1.067,11.733-1.067c1.067,0,1.067,0,2.133,0v-1.067   c-2.133-1.067-4.267-1.067-6.4-2.133c-4.267-1.067-7.467,0-11.733-1.067c-3.2-1.067-5.333-1.067-8.533-1.067   c-1.067,0-2.133,0-4.267,0c2.133-1.067,4.267,0,5.333-2.133c-2.133-1.067-4.267-1.067-6.4-1.067c-1.067,0-3.2,0-4.267,0   c0-1.067-1.067-1.067-2.133-1.067c-1.067,0-2.133,0-2.133,0c5.333,1.067,13.867,2.133,17.067,1.067   c-2.133-1.067-3.2-1.067-5.333-1.067c-3.2,0-6.4-2.133-9.6-3.2c-2.133,0-3.2-1.067-5.333-2.133   c-4.267-1.067-7.467-2.133-11.733-2.133c-6.4-1.067-12.8-2.133-18.133-3.2c-1.067,0-3.2,0-4.267,0c-1.067,0-2.133-1.067-3.2-1.067   c-1.067,0-1.067,0-2.133,0c-3.2-1.067-7.467-1.067-10.667-2.133c-3.2,0-5.333-1.067-8.533,1.067   c2.133,2.133,5.333,1.067,7.467,4.267c-3.2-1.067-6.4-2.133-9.6-3.2c-3.2-1.067-5.333-2.133-9.6-2.133   c1.067,1.067,2.133,2.133,3.2,2.133c-1.067,0-3.2-1.067-4.267-1.067s-3.2-1.067-4.267-2.133c0,1.067,0,1.067,0,1.067   c-1.067,0-1.067,0-2.133,0c0-1.067,0-2.133-1.067-2.133c-1.067,0-3.2,0-4.267-1.067c-4.267-1.067-8.533-1.067-13.867-2.133   c-1.067,0-1.067,0-2.133,0c0,1.067,0,2.133,1.067,2.133c1.067,1.067,3.2,2.133,5.333,2.133c6.4,2.133,11.733,3.2,18.133,5.333   c-2.133,0-3.2,0-5.333,1.067c5.333,0,10.667,2.133,16,4.267c0-1.067-1.067-2.133-1.067-3.2c1.067,0,1.067,0,1.067,0   c1.067,1.067,2.133,2.133,3.2,2.133c4.267,1.067,7.467,1.067,11.733,2.133c1.067,0,2.133,0,3.2,0c2.133,0,4.267,0,6.4,0   c0,0,0,0,1.067,0c-1.067,2.133,1.067,2.133,1.067,3.2s2.133,0,3.2,0h1.067c3.2,1.067,6.4,1.067,9.6,2.133   c1.067,0,2.133,1.067,2.133,1.067s0,1.067,1.067,1.067c1.067,0,2.133,1.067,3.2,1.067c2.133,1.067,4.267,3.2,6.4,2.133   c-1.067,0-2.133,0-3.2,0c-1.067,0-1.067,0-2.133,0c-3.2,1.067-5.333,1.067-8.533,0c-2.133,0-3.2,1.067-5.333,0   c-2.133,1.067-3.2,0-5.333,1.067l0,0c0,0,1.067,0,1.067,1.067h-1.067c0,1.067,1.067,2.133,2.133,2.133c1.067,0,3.2,0,4.267,1.067   c1.067,0,1.067,1.067,0,1.067l0,0c0,2.133-1.067,3.2-3.2,2.133c-1.067,0-2.133,0-2.133,0c-1.067,1.067-2.133,1.067-3.2,1.067   c-2.133,0-5.333,0-7.467,0c0,1.067,1.067,2.133,2.133,2.133c1.067,0,1.067,0,2.133,0c1.067,1.067,2.133,1.067,3.2,1.067   c1.067,0,2.133,0,2.133,1.067c-1.067,2.133-2.133,2.133-4.267,1.067c-1.067-1.067-3.2,0-4.267,0c3.2,1.067,6.4,1.067,8.533,3.2   c-1.067,0-1.067,0-2.133,0c0,0,0,0,0,1.067c1.067,0,1.067,0,2.133,1.067l0,0c-2.133,0-3.2,0-5.333-1.067c0,1.067,0,1.067,0,1.067   c-1.067,1.067-2.133,2.133-2.133,3.2h-1.067c-2.133,0-4.267,0-6.4,0c0-1.067,1.067-1.067,1.067-3.2c-2.133,3.2-3.2,3.2-4.267,3.2   c-1.067,0-3.2,0-4.267,0c0,0-1.067,0-2.133,0c0,0-1.067,0-2.133,0c1.067-1.067,1.067-1.067,2.133-1.067   c0-1.067-1.067-1.067-1.067-1.067c-1.067,1.067-2.133,0-3.2,0l-1.067-1.067c1.067,0,2.133,0,3.2,0   c-1.067,0-1.067-1.067-2.133-1.067c1.067,0,2.133-1.067,3.2-1.067l0,0c-1.067,0-2.133,0-4.267,0c2.133-2.133,4.267,0,6.4-1.067   c0-1.067-1.067-1.067-1.067-2.133c2.133,0,4.267-1.067,6.4,0c1.067,0,2.133,0,3.2,0c-2.133-1.067-4.267-2.133-7.467-3.2   c1.067,0,2.133-1.067,2.133-1.067s-1.067,0-1.067-1.067h-1.067c0,0,0-1.067,1.067-1.067c-2.133-1.067-2.133-1.067-1.067-3.2   c-1.067,0-1.067,0-2.133-1.067c2.133,0,3.2,0,5.333-1.067c0-2.133-2.133-2.133-3.2-3.2c-1.067-1.067-2.133-2.133-3.2-2.133   c0,0,0,0,1.067-1.067c-2.133,0-4.267-1.067-6.4-1.067c-2.133-1.067-4.267,0-6.4-2.133c0,0-1.067-1.067-2.133-1.067   c0-1.067-3.2-1.067-4.267-3.2c0,0-1.067,0-1.067-1.067c-2.133-1.067-4.267-1.067-6.4-3.2c-1.067-1.067-2.133-1.067-3.2-2.133   c-1.067-1.067-3.2-1.067-5.333-1.067l0,0l0,0l0,0l0,0c-1.067,0-1.067-1.067-2.133-1.067c-2.133-1.067-4.267-1.067-6.4-1.067   c-8.533-2.133-16-2.133-24.533-3.2c-1.067,1.067-2.133,1.067-3.2,2.133c2.133,1.067,5.333,2.133,7.467,3.2   c-1.067,1.067-1.067,0-2.133,0c-1.067,0-2.133-1.067-4.267,0c2.133,2.133,4.267,2.133,6.4,2.133c-1.067,0-1.067,0-1.067,0   s1.067,0,1.067,1.067c2.133,1.067,3.2,2.133,5.333,1.067c2.133,0,4.267,1.067,6.4,1.067c2.133,0,4.267,0,6.4,1.067   c2.133,0,4.267,1.067,6.4,2.133c2.133,1.067,4.267,2.133,5.333,3.2c1.067,1.067,2.133,1.067,3.2,1.067   c1.067,0,1.067,1.067,2.133,1.067l0,0c1.067,2.133,2.133,4.267,3.2,6.4c1.067,0,2.133,0,3.2,1.067c-1.067,0-1.067,0-2.133,0   s-1.067,0-2.133-1.067c0,2.133,0,2.133,0,4.267c2.133,1.067,3.2,2.133,5.333,1.067c1.067,0,1.067,0,2.133,0s0,1.067,1.067,1.067   s1.067,0,2.133,1.067s2.133,1.067,2.133,1.067s0,0,0,1.067c-1.067,0-1.067,0-2.133-1.067c-2.133-1.067-3.2-1.067-5.333-2.133   h-1.067c1.067,1.067-1.067,1.067-1.067,1.067l-1.067,1.067c3.2,2.133,4.267,3.2,8.533,2.133c-3.2,0-4.267,0-6.4-1.067   c3.2,1.067,5.333,1.067,7.467,3.2c0,1.067-1.067,2.133-1.067,2.133c-1.067,0-2.133,0-2.133,0c-1.067-1.067-1.067,1.067-2.133,1.067   s-1.067,0-2.133,0c-2.133,1.067-2.133,1.067-1.067,3.2v1.067c-1.067,1.067-1.067,1.067,0,2.133l1.067,1.067   c1.067,1.067,2.133,2.133,2.133,3.2c1.067,1.067,1.067,3.2,2.133,4.267c1.067,2.133,3.2,3.2,4.267,5.333   c2.133,3.2,4.267,4.267,7.467,4.267c2.133,0,3.2,1.067,3.2,2.133c1.067,1.067,2.133,2.133,3.2,2.133c1.067,0,2.133,0,2.133,0   c1.067-2.133,4.267-3.2,4.267-6.4c2.133-1.067,3.2-1.067,4.267-2.133c1.067-1.067,1.067-1.067,2.133-2.133v-1.067   c1.067,0,2.133,0,2.133,0c1.067-1.067,2.133-1.067,4.267-1.067s4.267,0,6.4,0c1.067,0,2.133,0,3.2,0c2.133,0,4.267-1.067,6.4-2.133   c1.067-1.067,3.2-1.067,4.267-1.067c2.133,0,4.267,0,6.4,1.067c7.467,1.067,14.933,0,21.333-1.067   C246.221,100.96,243.021,99.894,239.821,99.894z"/>
	<path style="fill:#E8EAE9;" d="M97.955,76.427c3.2,0,4.267,2.133,6.4,3.2v1.067c0,2.133,1.067,2.133,3.2,3.2   c2.133,1.067,3.2,2.133,5.333,2.133c1.067,0,1.067,1.067,2.133,2.133c-3.2,0-5.333,0-8.533,0c0-1.067,0-1.067,0-2.133   c-1.067-1.067-2.133,0-3.2,0c0,1.067,0,1.067-1.067,2.133c-1.067,0-2.133,0-3.2,0c2.133,3.2,4.267,4.267,6.4,5.333   c0,0,0,1.067-1.067,1.067c2.133,2.133,3.2,2.133,5.333,3.2c1.067,0,1.067,0,1.067,1.067c1.067,1.067,2.133,1.067,3.2,2.133   c2.133,1.067,3.2,1.067,5.333,2.133h1.067c-1.067-2.133-2.133-2.133-3.2-3.2c-1.067-1.067-3.2-1.067-3.2-3.2   c3.2,2.133,6.4,3.2,9.6,5.333c1.067-1.067,2.133-1.067,3.2-2.133c0-1.067-1.067-1.067-1.067-2.133c0-2.133-1.067-2.133-2.133-2.133   c-1.067-1.067-2.133-1.067-3.2-2.133c-1.067,0-1.067-1.067-2.133-1.067l-1.067-1.067l0,0c1.067,0,1.067,1.067,2.133,1.067   c0-1.067,1.067-2.133,2.133-1.067c1.067,1.067,3.2,1.067,3.2,2.133c1.067,2.133,3.2,3.2,5.333,4.267c0,0,0,0,1.067,0   c0,0,0-1.067,1.067-1.067c1.067,0,3.2,1.067,3.2-1.067h1.067c0,0,1.067,0,2.133-1.067c-5.333-5.333-8.533-6.4-10.667-8.533   c-3.2-2.133-6.4-3.2-9.6-4.267c0-1.067,1.067-1.067,1.067-1.067c1.067,0,2.133,0,3.2,0l0,0c-1.067,0-1.067-1.067-2.133-1.067V78.56   c-1.067,0-2.133-1.067-3.2-1.067c0-1.067,0-2.133-1.067-2.133c-1.067,0-1.067,0-2.133-1.067c-1.067,0-3.2-1.067-3.2-1.067   c-2.133-3.2-4.267-2.133-6.4-3.2c0,0-1.067,0-1.067-1.067c-2.133-1.067-4.267-3.2-7.467-3.2c-2.133,1.067-4.267,3.2-7.467,5.333   c2.133,1.067,3.2,2.133,5.333,4.267C95.821,75.36,96.888,76.427,97.955,76.427z"/>
</g>
<path style="fill:#415A6B;" d="M115.021,77.494l-4.267-13.867c-64,20.267-102.4,84.267-93.867,148.267  c-4.267-7.467-7.467-14.933-9.6-23.467c-24.533-72.533,14.933-150.4,87.467-173.867L90.488,0.694l54.4,24.533L115.021,77.494z"/>
<path style="fill:#F3705A;" d="M151.288,428.427l-9.6,10.667c50.133,44.8,123.733,46.933,176,7.467  c-4.267,7.467-9.6,13.867-14.933,20.267c-51.2,56.533-137.6,60.8-194.133,9.6l-9.6,10.667l-5.333-59.733L151.288,428.427z"/>
<path style="fill:#FFD15C;" d="M432.888,221.494l14.933,3.2c13.867-66.133-21.333-131.2-81.067-155.733  c8.533,0,17.067,1.067,25.6,3.2c74.667,16,121.6,88.533,105.6,163.2l14.933,3.2l-48,34.133L432.888,221.494z"/>
<g>
</g>
<g>
</g>
<g>
</g>
<g>
</g>
<g>
</g>
<g>
</g>
<g>
</g>
<g>
</g>
<g>
</g>
<g>
</g>
<g>
</g>
<g>
</g>
<g>
</g>
<g>
</g>
<g>
</g>
</svg>
