<?xml version="1.0" encoding="iso-8859-1"?>
<!-- Generator: Adobe Illustrator 19.0.0, SVG Export Plug-In . SVG Version: 6.00 Build 0)  -->
<svg xmlns="http://www.w3.org/2000/svg" xmlns:xlink="http://www.w3.org/1999/xlink" version="1.1" id="Layer_1" x="0px" y="0px" viewBox="0 0 494.623 494.623" style="enable-background:new 0 0 494.623 494.623;" xml:space="preserve">
<path style="fill:#4EC0AA;" d="M428.677,121.649c-7.467,0-73.6,7.467-130.133,28.8c-62.933,18.133-105.6,42.667-210.133-16  c3.2-141.867,142.933-147.2,219.733-113.067C393.477,57.649,419.077,114.183,428.677,121.649z"/>
<path style="fill:#415A6B;" d="M348.677,85.383c4.267-4.267-196.267-44.8-294.4,64c6.4,4.267,12.8,8.533,19.2,12.8  C71.344,167.516,144.944,59.783,348.677,85.383z"/>
<path style="fill:#4EC0AA;" d="M27.611,167.516c3.2,7.467,42.667,60.8,90.667,98.133c46.933,44.8,90.667,70.4,90.667,189.867  c-123.733,68.267-198.4-50.133-206.933-134.4C-8.656,229.383,26.544,179.249,27.611,167.516z"/>
<path style="fill:#415A6B;" d="M37.211,253.916c-5.333-2.133,59.733,192,202.667,222.933c1.067-7.467,1.067-14.933,2.133-23.467  C246.277,453.383,117.211,443.783,37.211,253.916z"/>
<path style="fill:#4EC0AA;" d="M268.677,490.716c4.267-6.4,30.933-67.2,39.467-128c14.933-62.933,16-113.067,118.4-173.867  c121.6,73.6,56.533,197.333-11.733,246.4C341.211,491.783,279.344,486.449,268.677,490.716z"/>
<path style="fill:#415A6B;" d="M339.077,439.516c1.067,6.4,136.533-147.2,91.733-286.933c-7.467,3.2-13.867,6.4-21.333,9.6  C407.344,158.983,462.811,275.249,339.077,439.516z"/>
<g>
</g>
<g>
</g>
<g>
</g>
<g>
</g>
<g>
</g>
<g>
</g>
<g>
</g>
<g>
</g>
<g>
</g>
<g>
</g>
<g>
</g>
<g>
</g>
<g>
</g>
<g>
</g>
<g>
</g>
</svg>
