<?xml version="1.0" encoding="iso-8859-1"?>
<!-- Generator: Adobe Illustrator 19.0.0, SVG Export Plug-In . SVG Version: 6.00 Build 0)  -->
<svg xmlns="http://www.w3.org/2000/svg" xmlns:xlink="http://www.w3.org/1999/xlink" version="1.1" id="Layer_1" x="0px" y="0px" viewBox="0 0 511.354 511.354" style="enable-background:new 0 0 511.354 511.354;" xml:space="preserve">
<path style="fill:#415A6B;" d="M274.559,511.354h29.867c27.733-84.267,11.733-165.333-8.533-221.867l-26.667,10.667  C288.426,354.554,303.359,432.42,274.559,511.354z"/>
<path style="fill:#F3705A;" d="M402.559,110.287c-13.867-33.067-55.467-48-88.533-34.133c4.267-35.2-22.4-71.467-57.6-75.733  s-69.333,24.533-73.6,59.733c-28.8-21.333-72.533-17.067-93.867,11.733s-13.867,72.533,14.933,93.867  c-33.067,13.867-51.2,54.4-37.333,87.467s55.467,48,88.533,34.133c-4.267,35.2,22.4,71.467,57.6,75.733s69.333-24.533,73.6-59.733  c28.8,21.333,72.533,17.067,93.867-11.733c21.333-28.8,13.867-72.533-14.933-93.867  C398.292,183.887,416.426,142.287,402.559,110.287z"/>
<circle style="fill:#F3F3F3;" cx="234.026" cy="181.754" r="73.6"/>
<circle style="fill:#F3705A;" cx="234.026" cy="181.754" r="29.867"/>
<g>
	<path style="fill:#4EC0AA;" d="M319.359,449.487c62.933,8.533,121.6-35.2,130.133-98.133   C386.559,342.82,327.892,386.554,319.359,449.487z"/>
	<path style="fill:#4EC0AA;" d="M142.292,383.354c18.133,60.8,82.133,96,142.933,78.933   C268.159,400.42,203.092,365.22,142.292,383.354z"/>
</g>
<g>
</g>
<g>
</g>
<g>
</g>
<g>
</g>
<g>
</g>
<g>
</g>
<g>
</g>
<g>
</g>
<g>
</g>
<g>
</g>
<g>
</g>
<g>
</g>
<g>
</g>
<g>
</g>
<g>
</g>
</svg>
