<?xml version="1.0" encoding="iso-8859-1"?>
<!-- Generator: Adobe Illustrator 19.0.0, SVG Export Plug-In . SVG Version: 6.00 Build 0)  -->
<svg xmlns="http://www.w3.org/2000/svg" xmlns:xlink="http://www.w3.org/1999/xlink" version="1.1" id="Layer_1" x="0px" y="0px" viewBox="0 0 514.133 514.133" style="enable-background:new 0 0 514.133 514.133;" xml:space="preserve">
<polygon style="fill:#FFD15C;" points="514.133,117.333 481.067,136.533 501.333,168.533 464,172.8 468.267,210.133   433.067,197.333 421.333,233.6 394.667,205.867 368,233.6 356.267,197.333 320,210.133 325.333,172.8 286.933,168.533   307.2,136.533 275.2,117.333 307.2,97.067 286.933,65.067 325.333,61.867 320,24.533 356.267,37.333 368,1.067 394.667,27.733   421.333,1.067 433.067,37.333 468.267,24.533 464,61.867 501.333,65.067 481.067,97.067 "/>
<circle style="fill:#F7B64C;" cx="394.667" cy="114.133" r="56.533"/>
<rect x="55.467" y="312.533" style="fill:#F3705A;" width="404.267" height="200.533"/>
<rect x="253.867" y="377.6" style="fill:#E8EAE9;" width="148.267" height="86.4"/>
<rect x="113.067" y="377.6" style="fill:#415A6B;" width="101.333" height="135.467"/>
<polygon style="fill:#F3F3F3;" points="450.133,124.8 514.133,322.133 0,322.133 64,124.8 "/>
<g>
	<polygon style="fill:#55C0EB;" points="49.067,293.333 237.867,293.333 240,221.867 68.267,221.867  "/>
	<polygon style="fill:#55C0EB;" points="445.867,221.867 275.2,221.867 276.267,293.333 466.133,293.333  "/>
	<polygon style="fill:#55C0EB;" points="274.133,199.467 440.533,199.467 425.6,142.933 273.067,142.933  "/>
	<polygon style="fill:#55C0EB;" points="74.667,199.467 240,199.467 242.133,142.933 89.6,142.933  "/>
</g>
<g>
</g>
<g>
</g>
<g>
</g>
<g>
</g>
<g>
</g>
<g>
</g>
<g>
</g>
<g>
</g>
<g>
</g>
<g>
</g>
<g>
</g>
<g>
</g>
<g>
</g>
<g>
</g>
<g>
</g>
</svg>
