<?xml version="1.0" encoding="iso-8859-1"?>
<!-- Generator: Adobe Illustrator 19.0.0, SVG Export Plug-In . SVG Version: 6.00 Build 0)  -->
<svg xmlns="http://www.w3.org/2000/svg" xmlns:xlink="http://www.w3.org/1999/xlink" version="1.1" id="Layer_1" x="0px" y="0px" viewBox="0 0 512 512" style="enable-background:new 0 0 512 512;" xml:space="preserve">
<path style="fill:#66C6B9;" d="M232.533,395.733c40.533-118.4-114.133-108.8-155.733-131.2  C116.267,322.133,109.867,437.333,232.533,395.733z"/>
<path style="fill:#415A6B;" d="M200.533,364.8c-4.267-20.267-9.6-37.333-20.267-51.2c7.467,12.8,11.733,28.8,12.8,45.867  C188.8,355.2,183.467,352,179.2,348.8c0,0,0,0,0-1.067h-1.067c-8.533-6.4-16-11.733-22.4-17.067  c-5.333-12.8-13.867-24.533-22.4-35.2c6.4,9.6,12.8,20.267,17.067,32C139.733,320,133.333,316.8,133.333,316.8  s14.933,10.667,36.267,30.933c-17.067-1.067-32-3.2-43.733-8.533c13.867,7.467,29.867,12.8,50.133,14.933  c23.467,22.4,53.333,54.4,81.067,94.933v-28.8C238.933,397.867,218.667,379.733,200.533,364.8z"/>
<path style="fill:#66C6B9;" d="M280.533,472.533c124.8,54.4,126.933-115.2,154.667-156.8  C370.133,353.067,245.333,337.067,280.533,472.533z"/>
<g>
	<path style="fill:#415A6B;" d="M397.867,374.4c-10.667,5.333-20.267,10.667-32,14.933C384,369.067,400,352,409.6,342.4   c-13.867,13.867-40.533,38.4-70.4,65.067c2.133-17.067,6.4-32,12.8-44.8c-8.533,13.867-14.933,29.867-19.2,50.133   c-26.667,24.533-53.333,49.067-72.533,66.133v27.733c13.867-16,35.2-40.533,58.667-66.133c21.333-2.133,40.533-7.467,55.467-18.133   c-13.867,6.4-30.933,9.6-49.067,10.667c11.733-12.8,23.467-26.667,35.2-39.467C374.4,389.333,386.133,381.867,397.867,374.4z"/>
	<rect x="245.333" y="276.267" style="fill:#415A6B;" width="21.333" height="235.733"/>
</g>
<path style="fill:#F05540;" d="M256,0L256,0L256,0c-88.533,76.8-88.533,200.533,0,277.333l0,0C344.533,200.533,344.533,76.8,256,0z"/>
<g>
	<path style="fill:#F3705A;" d="M256,230.4v66.133l0,0c73.6,0,132.267-59.733,132.267-132.267V98.133   C314.667,98.133,256,157.867,256,230.4z"/>
	<path style="fill:#F3705A;" d="M123.733,98.133v66.133c0,73.6,59.733,132.267,132.267,132.267V230.4   C256,157.867,196.267,98.133,123.733,98.133z"/>
</g>
<g>
</g>
<g>
</g>
<g>
</g>
<g>
</g>
<g>
</g>
<g>
</g>
<g>
</g>
<g>
</g>
<g>
</g>
<g>
</g>
<g>
</g>
<g>
</g>
<g>
</g>
<g>
</g>
<g>
</g>
</svg>
