<?xml version="1.0" encoding="iso-8859-1"?>
<!-- Generator: Adobe Illustrator 19.0.0, SVG Export Plug-In . SVG Version: 6.00 Build 0)  -->
<svg xmlns="http://www.w3.org/2000/svg" xmlns:xlink="http://www.w3.org/1999/xlink" version="1.1" id="Layer_1" x="0px" y="0px" viewBox="0 0 512 512" style="enable-background:new 0 0 512 512;" xml:space="preserve">
<rect y="377.6" style="fill:#F7B64C;" width="154.667" height="21.333"/>
<g>
	<rect x="21.333" y="345.6" style="fill:#FFD15C;" width="33.067" height="116.267"/>
	<rect x="96" y="345.6" style="fill:#FFD15C;" width="33.067" height="116.267"/>
</g>
<g>
	<path style="fill:#4EC0AA;" d="M512,377.6c-265.6,0-478.933,59.733-478.933,132.267c0,1.067,0,1.067,0,2.133H512V377.6z"/>
	<path style="fill:#4EC0AA;" d="M156.8,173.867c98.133-6.4,44.8-115.2,48-151.467C176,67.2,91.733,98.133,156.8,173.867z"/>
</g>
<g>
	<path style="fill:#415A6B;" d="M166.4,137.6c14.933-7.467,27.733-16,35.2-26.667c-7.467,11.733-18.133,21.333-32,30.933   C168.533,139.733,167.467,138.667,166.4,137.6z"/>
	<path style="fill:#415A6B;" d="M177.067,120.533c-6.4-14.933-9.6-28.8-9.6-40.533c-1.067,12.8,0,26.667,4.267,41.6   C173.867,121.6,174.933,120.533,177.067,120.533z"/>
	<path style="fill:#415A6B;" d="M181.333,94.933c-1.067,2.133-1.067,4.267-2.133,5.333c8.533-8.533,14.933-18.133,20.267-28.8   C195.2,80,189.867,87.467,181.333,94.933z"/>
	<path style="fill:#415A6B;" d="M157.867,195.2c7.467-30.933,29.867-117.333,39.467-147.2c-10.667,30.933-44.8,118.4-53.333,142.933   L157.867,195.2z"/>
</g>
<path style="fill:#66C6B9;" d="M123.733,145.067C171.733,33.067,34.133,26.667,0,0C28.8,59.733,12.8,171.733,123.733,145.067z"/>
<g>
	<path style="fill:#415A6B;" d="M92.8,113.067C93.867,92.8,91.733,73.6,85.333,57.6c7.467,14.933,11.733,33.067,12.8,53.333   C97.067,112,94.933,113.067,92.8,113.067z"/>
	<path style="fill:#415A6B;" d="M82.133,91.733C62.933,89.6,48,84.267,36.267,76.8C48,85.333,61.867,92.8,80,97.067   C81.067,94.933,81.067,92.8,82.133,91.733z"/>
	<path style="fill:#415A6B;" d="M58.667,70.4c2.133,2.133,3.2,3.2,5.333,5.333C59.733,60.8,53.333,48,46.933,35.2   C52.267,46.933,56.533,57.6,58.667,70.4z"/>
	<path style="fill:#415A6B;" d="M170.667,220.8C125.867,122.667,44.8,56.533,44.8,56.533s64,64,105.6,164.267H170.667z"/>
</g>
<path style="fill:#F3705A;" d="M502.4,249.6L328.533,75.733c-13.867-13.867-35.2-13.867-48,0L105.6,249.6  c-13.867,13.867-13.867,35.2,0,48c13.867,13.867,35.2,13.867,48,0l149.333-149.333L452.267,297.6  c13.867,13.867,35.2,13.867,49.067,0l0,0C515.2,284.8,515.2,262.4,502.4,249.6z"/>
<polygon style="fill:#E8EAE9;" points="453.333,476.8 453.333,297.6 304,148.267 154.667,297.6 154.667,476.8 "/>
<rect x="251.733" y="345.6" style="fill:#415A6B;" width="104.533" height="131.2"/>
<path style="fill:#66C6B9;" d="M512,485.333C428.8,468.267,316.8,444.8,193.067,444.8c-69.333,0-134.4,3.2-193.067,9.6V512h512  V485.333z"/>
<g>
</g>
<g>
</g>
<g>
</g>
<g>
</g>
<g>
</g>
<g>
</g>
<g>
</g>
<g>
</g>
<g>
</g>
<g>
</g>
<g>
</g>
<g>
</g>
<g>
</g>
<g>
</g>
<g>
</g>
</svg>
