<?xml version="1.0" encoding="iso-8859-1"?>
<!-- Generator: Adobe Illustrator 19.0.0, SVG Export Plug-In . SVG Version: 6.00 Build 0)  -->
<svg xmlns="http://www.w3.org/2000/svg" xmlns:xlink="http://www.w3.org/1999/xlink" version="1.1" id="Layer_1" x="0px" y="0px" viewBox="0 0 512 512" style="enable-background:new 0 0 512 512;" xml:space="preserve">
<circle style="fill:#415A6B;" cx="255.273" cy="256" r="48"/>
<path style="fill:#E8EAE9;" d="M435.54,256c5.333-6.4,10.667-11.733,14.933-18.133C483.54,194.133,493.14,155.733,477.14,128  c-19.2-32-68.267-40.533-131.2-27.733C324.607,38.4,292.607,0,255.273,0s-69.333,38.4-90.667,100.267  c-62.933-12.8-112-4.267-131.2,27.733c-18.133,32-1.067,80,41.6,128c-42.667,48-59.733,96-41.6,128  c12.8,22.4,40.533,34.133,80,34.133c8.533,0,19.2-1.067,28.8-2.133c7.467-1.067,14.933-2.133,23.467-4.267  C185.94,472.533,219.007,512,256.34,512s69.333-38.4,90.667-100.267c18.133,3.2,35.2,5.333,51.2,5.333c38.4,0,67.2-10.667,80-34.133  c16-27.733,6.4-66.133-26.667-109.867C446.207,267.733,440.873,262.4,435.54,256z M461.14,136.533  c11.733,20.267,2.133,53.333-25.6,89.6c-4.267,5.333-8.533,10.667-12.8,16C405.673,225.067,386.473,208,364.073,192  c-2.133-26.667-6.4-52.267-12.8-74.667C404.607,106.667,447.273,112,461.14,136.533z M367.273,216.533  c16,12.8,30.933,25.6,43.733,39.467c-12.8,12.8-27.733,26.667-43.733,39.467c1.067-12.8,1.067-25.6,1.067-39.467  C368.34,243.2,368.34,229.333,367.273,216.533z M344.873,179.2c-10.667-7.467-21.333-13.867-33.067-20.267  c-11.733-6.4-23.467-12.8-34.133-18.133c19.2-7.467,38.4-13.867,55.467-18.133C338.473,138.667,341.673,157.867,344.873,179.2z   M255.273,18.133c28.8,0,54.4,34.133,72.533,86.4c-23.467,5.333-46.933,14.933-72.533,25.6c-25.6-10.667-49.067-19.2-72.533-25.6  C200.873,52.267,226.473,18.133,255.273,18.133z M177.407,121.6c18.133,4.267,36.267,10.667,55.467,18.133  c-11.733,5.333-22.4,11.733-34.133,18.133s-22.4,13.867-33.067,20.267C168.873,157.867,172.073,138.667,177.407,121.6z   M49.407,136.533C59.007,119.467,82.473,112,112.34,112c13.867,0,29.867,2.133,46.933,5.333c-6.4,22.4-11.733,48-13.867,75.733  c-22.4,16-41.6,33.067-58.667,50.133C50.473,201.6,34.473,162.133,49.407,136.533z M143.273,294.4c-16-12.8-30.933-25.6-43.733-38.4  c12.8-12.8,27.733-26.667,43.733-38.4c-1.067,12.8-1.067,25.6-1.067,38.4C142.207,268.8,142.207,282.667,143.273,294.4z   M140.073,397.867c-45.867,5.333-78.933-3.2-90.667-23.467c-13.867-24.533,2.133-64,38.4-105.6  c17.067,17.067,36.267,34.133,58.667,50.133c3.2,27.733,7.467,52.267,13.867,75.733  C152.873,395.733,146.473,397.867,140.073,397.867z M165.673,333.867c10.667,7.467,21.333,13.867,33.067,20.267  c11.733,6.4,23.467,12.8,34.133,18.133c-19.2,7.467-37.333,13.867-55.467,18.133C172.073,373.333,168.873,354.133,165.673,333.867z   M255.273,493.867c-28.8,0-54.4-34.133-72.533-85.333c23.467-6.4,48-14.933,72.533-25.6c25.6,10.667,49.067,19.2,72.533,25.6  C309.673,459.733,284.073,493.867,255.273,493.867z M333.14,390.4c-18.133-4.267-36.267-10.667-55.467-18.133  c11.733-5.333,23.467-11.733,34.133-18.133c11.733-6.4,22.4-13.867,33.067-20.267C341.673,354.133,338.473,373.333,333.14,390.4z   M348.073,309.333c-13.867,9.6-28.8,20.267-44.8,28.8c-16,9.6-32,17.067-48,24.533c-16-7.467-32-14.933-48-24.533  c-16-9.6-30.933-19.2-44.8-28.8c-2.133-17.067-2.133-35.2-2.133-53.333c0-18.133,1.067-36.267,2.133-53.333  c13.867-9.6,28.8-20.267,44.8-28.8c16-9.6,32-17.067,48-24.533c16,7.467,32,14.933,48,24.533c16,9.6,30.933,19.2,44.8,28.8  c2.133,17.067,2.133,35.2,2.133,53.333C350.207,274.133,349.14,292.267,348.073,309.333z M461.14,375.467  c-13.867,24.533-56.533,29.867-109.867,19.2c6.4-22.4,11.733-48,13.867-75.733c21.333-16,41.6-33.067,58.667-50.133  c4.267,5.333,8.533,10.667,12.8,16C464.34,322.133,472.873,354.133,461.14,375.467z"/>
<circle style="fill:#8AD7F8;" cx="339.54" cy="109.867" r="28.8"/>
<circle style="fill:#FFD15C;" cx="446.207" cy="396.8" r="28.8"/>
<circle style="fill:#4EC0AA;" cx="150.74" cy="200.533" r="28.8"/>
<circle style="fill:#F3705A;" cx="121.94" cy="408.533" r="28.8"/>
<g>
</g>
<g>
</g>
<g>
</g>
<g>
</g>
<g>
</g>
<g>
</g>
<g>
</g>
<g>
</g>
<g>
</g>
<g>
</g>
<g>
</g>
<g>
</g>
<g>
</g>
<g>
</g>
<g>
</g>
</svg>
