<?xml version="1.0" encoding="iso-8859-1"?>
<!-- Generator: Adobe Illustrator 19.0.0, SVG Export Plug-In . SVG Version: 6.00 Build 0)  -->
<svg xmlns="http://www.w3.org/2000/svg" xmlns:xlink="http://www.w3.org/1999/xlink" version="1.1" id="Layer_1" x="0px" y="0px" viewBox="0 0 512 512" style="enable-background:new 0 0 512 512;" xml:space="preserve">
<path style="fill:#415A6B;" d="M469.333,332.8H42.667V70.4c0-11.733,9.6-21.333,21.333-21.333h384  c11.733,0,21.333,9.6,21.333,21.333V332.8z"/>
<rect x="71.467" y="77.867" style="fill:#FFFFFF;" width="369.067" height="228.267"/>
<polygon style="fill:#CED6E0;" points="512,417.067 0,417.067 42.667,332.8 469.333,332.8 "/>
<g>
	<polygon style="fill:#ADB3BA;" points="203.733,403.2 222.933,363.733 289.067,363.733 308.267,403.2  "/>
	<path style="fill:#ADB3BA;" d="M45.867,462.933h420.267c25.6,0,45.867-20.267,45.867-45.867l0,0H0l0,0   C0,442.667,20.267,462.933,45.867,462.933z"/>
</g>
<path style="fill:#4EC0AA;" d="M405.333,102.4c-33.067,6.4-55.467,50.133-65.067,76.8c-13.867,35.2-9.6,48-69.333,84.267  c-5.333-3.2-10.667-6.4-14.933-9.6c-30.933-26.667-23.467-70.4,0-100.267l0,0c7.467-9.6,16-18.133,25.6-24.533  C322.133,98.133,373.333,103.467,405.333,102.4z"/>
<g>
	<path style="fill:#415A6B;" d="M280.533,286.933c-7.467-74.667,21.333-145.067,83.2-172.8c-57.6,25.6-109.867,90.667-94.933,172.8   H280.533z"/>
	<path style="fill:#415A6B;" d="M277.333,205.867c20.267-13.867,36.267-21.333,48-32c-10.667,11.733-25.6,21.333-43.733,36.267   C280.533,209.067,279.467,208,277.333,205.867z"/>
	<path style="fill:#415A6B;" d="M295.467,182.4c-2.133-21.333,7.467-41.6,20.267-56.533c-14.933,14.933-26.667,35.2-26.667,56.533   C291.2,182.4,293.333,182.4,295.467,182.4z"/>
	<path style="fill:#415A6B;" d="M315.733,149.333c-2.133,2.133-4.267,4.267-6.4,6.4c14.933-8.533,27.733-17.067,42.667-23.467   C339.2,137.6,328.533,144,315.733,149.333z"/>
	<path style="opacity:0.4;fill:#415A6B;enable-background:new    ;" d="M258.133,252.8c-30.933-26.667-23.467-70.4,0-100.267   C256,166.4,262.4,176,264.533,182.4C269.867,200.533,272,220.8,258.133,252.8z"/>
</g>
<path style="fill:#66C6B9;" d="M251.733,249.6C307.2,131.2,146.133,123.733,105.6,96C139.733,160,120.533,277.333,251.733,249.6z"/>
<g>
	<path style="fill:#415A6B;" d="M215.467,215.467c1.067-21.333-1.067-41.6-8.533-58.667c9.6,16,13.867,35.2,14.933,56.533   C219.733,214.4,217.6,215.467,215.467,215.467z"/>
	<path style="fill:#415A6B;" d="M202.667,193.067c-22.4-2.133-39.467-7.467-54.4-14.933c13.867,9.6,30.933,17.067,51.2,21.333   C200.533,196.267,201.6,194.133,202.667,193.067z"/>
	<path style="fill:#415A6B;" d="M174.933,170.667c2.133,2.133,4.267,4.267,5.333,5.333C176,160,168.533,147.2,160,133.333   C166.4,145.067,171.733,156.8,174.933,170.667z"/>
	<path style="fill:#415A6B;" d="M281.6,286.933c-53.333-80-123.733-132.267-123.733-132.267s55.467,50.133,102.4,132.267H281.6z"/>
</g>
<g>
</g>
<g>
</g>
<g>
</g>
<g>
</g>
<g>
</g>
<g>
</g>
<g>
</g>
<g>
</g>
<g>
</g>
<g>
</g>
<g>
</g>
<g>
</g>
<g>
</g>
<g>
</g>
<g>
</g>
</svg>
