<?xml version="1.0" encoding="iso-8859-1"?>
<!-- Generator: Adobe Illustrator 19.0.0, SVG Export Plug-In . SVG Version: 6.00 Build 0)  -->
<svg xmlns="http://www.w3.org/2000/svg" xmlns:xlink="http://www.w3.org/1999/xlink" version="1.1" id="Layer_1" x="0px" y="0px" viewBox="0 0 512 512" style="enable-background:new 0 0 512 512;" xml:space="preserve">
<path style="fill:#415A6B;" d="M512,100.4V414c0,9.6-8.533,18.133-18.133,18.133H290.133c-4.267,14.933-18.133,25.6-34.133,25.6  s-29.867-10.667-34.133-25.6H18.133C8.533,432.133,0,423.6,0,414V100.4c0-9.6,8.533-18.133,18.133-18.133h475.733  C503.467,82.267,512,89.733,512,100.4z"/>
<rect x="34.133" y="281.733" style="fill:#CED6E0;" width="442.667" height="112"/>
<path style="fill:#E8EAE9;" d="M256,393.733c-70.4-37.333-151.467-37.333-221.867,0c0-103.467,0-208,0-311.467  c70.4-37.333,151.467-37.333,221.867,0C256,185.733,256,289.2,256,393.733z"/>
<path style="fill:#F3F3F3;" d="M477.867,393.733c-70.4-37.333-151.467-37.333-221.867,0c0-103.467,0-208,0-311.467  c70.4-37.333,151.467-37.333,221.867,0C477.867,185.733,477.867,289.2,477.867,393.733z"/>
<path style="fill:#F3705A;" d="M146.133,90.8c-25.6,0-51.2,4.267-75.733,11.733v14.933c24.533-8.533,50.133-12.8,75.733-12.8V90.8z"/>
<g>
	<path style="fill:#ADB3BA;" d="M70.4,146.267v16c49.067-17.067,100.267-17.067,149.333,0v-16   C171.733,131.333,119.467,131.333,70.4,146.267z"/>
	<path style="fill:#ADB3BA;" d="M70.4,191.067v16c49.067-17.067,100.267-17.067,149.333,0v-16   C171.733,175.067,119.467,175.067,70.4,191.067z"/>
	<path style="fill:#ADB3BA;" d="M70.4,234.8v16c49.067-17.067,100.267-17.067,149.333,0v-16   C171.733,219.867,119.467,219.867,70.4,234.8z"/>
	<path style="fill:#ADB3BA;" d="M70.4,279.6v16c49.067-17.067,100.267-17.067,149.333,0v-16C171.733,263.6,119.467,263.6,70.4,279.6   z"/>
	<path style="fill:#ADB3BA;" d="M70.4,324.4v16c49.067-17.067,100.267-17.067,149.333,0v-16C171.733,308.4,119.467,308.4,70.4,324.4   z"/>
</g>
<path style="fill:#66C6B9;" d="M390.4,295.6c87.467-78.933-43.733-140.8-67.2-177.067C328.533,182.533,272,273.2,390.4,295.6z"/>
<g>
	<path style="fill:#415A6B;" d="M371.2,255.067c8.533-18.133,13.867-35.2,13.867-51.2c2.133,16-1.067,34.133-6.4,52.267   C375.467,255.067,373.333,255.067,371.2,255.067z"/>
	<path style="fill:#415A6B;" d="M363.733,228.4c-14.933-8.533-25.6-18.133-34.133-28.8c7.467,12.8,19.2,24.533,35.2,35.2   L363.733,228.4z"/>
	<path style="fill:#415A6B;" d="M354.133,202.8c1.067,2.133,2.133,4.267,3.2,6.4c2.133-14.933,0-28.8-2.133-42.667   C356.267,179.333,356.267,191.067,354.133,202.8z"/>
	<path style="fill:#415A6B;" d="M396.8,312.667c-18.133-72.533-51.2-126.933-51.2-126.933s23.467,50.133,35.2,120.533L396.8,312.667   z"/>
</g>
<g>
</g>
<g>
</g>
<g>
</g>
<g>
</g>
<g>
</g>
<g>
</g>
<g>
</g>
<g>
</g>
<g>
</g>
<g>
</g>
<g>
</g>
<g>
</g>
<g>
</g>
<g>
</g>
<g>
</g>
</svg>
